<svg width="27" height="29" viewBox="0 0 27 29" fill="none" xmlns="http://www.w3.org/2000/svg">
<g clip-path="url(#clip0_52_1)">
<path d="M19.6743 7.55704L19.7004 7.76178L19.4 7.82529L19.36 8.26141H19.7198L20.1984 8.21434L20.4455 7.91433L20.1829 7.80998L20.0391 7.64098L19.8231 7.28369L19.7198 6.77838L19.3139 6.86288L19.2001 7.04096V7.24172L19.3955 7.3784L19.6743 7.55704Z" fill="white"/>
<path d="M19.3284 7.72489L19.35 7.45154L19.1118 7.34662L18.7787 7.42545L18.5316 7.83038V8.09295H18.8197L19.3284 7.72489Z" fill="white"/>
<path d="M12.4708 8.88583L12.3975 9.07865H12.0427V9.26581H12.1271C12.1271 9.26581 12.1321 9.3055 12.1393 9.35768L12.357 9.33896L12.493 9.25276L12.5286 9.07865L12.7046 9.06334L12.774 8.91702L12.6124 8.883L12.4708 8.88583Z" fill="white"/>
<path d="M11.5563 9.2255L11.5424 9.40868L11.7995 9.38656L11.8262 9.20281L11.6718 9.07861L11.5563 9.2255Z" fill="white"/>
<path d="M26.9967 15.0692C26.9928 14.6659 26.9728 14.2656 26.9356 13.8714C26.8107 12.5574 26.503 11.2978 26.0422 10.117C26.0077 10.0291 25.9761 9.9401 25.9394 9.85333C25.3253 8.37143 24.463 7.02224 23.4074 5.85793C23.338 5.78194 23.2675 5.70708 23.197 5.63335C22.9976 5.42181 22.7927 5.21538 22.5806 5.01745C20.1807 2.78582 16.9935 1.42358 13.4997 1.42358C9.97654 1.42358 6.76652 2.8102 4.35998 5.07587C3.79916 5.60386 3.28387 6.18006 2.81633 6.79709C1.05279 9.12684 0 12.0453 0 15.2115C0 22.815 6.05633 29 13.5003 29C18.7365 29 23.2825 25.9375 25.5202 21.4754C25.9988 20.5215 26.3714 19.5047 26.6224 18.439C26.6863 18.1685 26.7412 17.8969 26.789 17.6218C26.925 16.8386 26.9994 16.0333 26.9994 15.2115C27 15.1639 26.9972 15.1168 26.9967 15.0692ZM24.4558 9.55842L24.534 9.46881C24.6368 9.67241 24.7328 9.87941 24.8245 10.0892L24.6967 10.0841L24.4558 10.1182V9.55842ZM22.5051 7.15268L22.5073 6.53678C22.7194 6.76647 22.9238 7.00296 23.1192 7.24796L22.876 7.61772L22.0259 7.60978L21.9726 7.42887L22.5051 7.15268ZM6.22013 5.62201V5.59876H6.49055L6.51387 5.50405H6.95642V5.70141L6.82927 5.87495H6.21958L6.22013 5.62201ZM6.65213 6.23734C6.65213 6.23734 6.92255 6.19027 6.94587 6.19027C6.96919 6.19027 6.94587 6.46589 6.94587 6.46589L6.33619 6.50502L6.22013 6.36324L6.65213 6.23734ZM25.3159 11.7107H24.328L23.7261 11.253L23.0926 11.3159V11.7107H22.8921L22.6756 11.553L21.5783 11.2689V10.5429L20.1879 10.6535L19.7571 10.89H19.2051L18.9347 10.8622L18.2645 11.2422V11.9574L16.8946 12.9668L17.0085 13.3979H17.2861L17.2134 13.8085L17.0179 13.8816L17.0074 14.9546L18.1912 16.3316H18.7065L18.7376 16.2477H19.6638L19.9309 15.9953H20.4561L20.7443 16.2902L21.5273 16.373L21.4234 17.4364L22.2924 19.0033L21.8349 19.8965L21.866 20.3173L22.2263 20.6843V21.696L22.6994 22.3459V23.1864H23.1081C20.8337 26.0385 17.3722 27.8652 13.4992 27.8652C6.66824 27.8658 1.11054 22.1889 1.11054 15.2115C1.11054 13.4551 1.46369 11.781 2.09948 10.2594V9.86467L2.54258 9.31512C2.69639 9.01852 2.86131 8.72928 3.03733 8.44742L3.05732 8.67711L2.54314 9.31512C2.38377 9.62251 2.23496 9.93669 2.10003 10.2594V10.9796L2.61477 11.2326V12.2335L3.1084 13.0939L3.50986 13.1568L3.5615 12.8619L3.08786 12.1156L2.99513 11.3902H3.27276L3.38992 12.1366L4.07457 13.1568L3.89799 13.4863L4.33333 14.1663L5.41444 14.4397V14.261L5.84699 14.324L5.8059 14.6393L6.14573 14.7028L6.67046 14.8491L7.41174 15.7117L8.35848 15.7849L8.45121 16.5738L7.80321 17.0365L7.77267 17.7409L7.67994 18.1719L8.61723 19.3702L8.68886 19.7808C8.68886 19.7808 9.02869 19.875 9.07033 19.875C9.11142 19.875 9.83217 20.4325 9.83217 20.4325V22.5983L10.0893 22.672L9.91434 23.6713L10.3469 24.2606L10.2669 25.2508L10.8383 26.2767L11.5718 26.9312L12.3092 26.9448L12.3814 26.7026L11.8395 26.2364L11.8706 26.005L11.9677 25.7215L11.9883 25.4322L11.6218 25.4209L11.4369 25.1838L11.7412 24.885L11.7823 24.6593L11.4424 24.56L11.4624 24.3502L11.9466 24.2753L12.6829 23.914L12.93 23.4513L13.7024 22.4418L13.5269 21.6524L13.764 21.2321L14.4742 21.2542L14.9523 20.8675L15.1067 19.3442L15.637 18.6562L15.7297 18.2144L15.246 18.0562L14.9268 17.5214L13.8357 17.5101L12.9706 17.1732L12.9295 16.5431L12.6407 16.0276L11.8583 16.0157L11.4064 15.2909L11.0049 15.0907L10.9844 15.3119L10.2536 15.3561L9.98597 14.9756L9.22359 14.8174L8.59558 15.5586L7.6072 15.3873L7.53557 14.2497L6.81427 14.1238L7.10357 13.5657L7.02083 13.2453L6.07299 13.8924L5.47663 13.8181L5.26396 13.3423L5.39389 12.8517L5.72261 12.233L6.47944 11.8417L7.94092 11.8411L7.93703 12.2965L8.46231 12.546L8.42067 11.7679L8.79936 11.3789L9.56341 10.8662L9.61561 10.5055L10.3774 9.69567L11.1876 9.23743L11.1159 9.17731L11.6646 8.64989L11.8656 8.70433L11.9577 8.82229L12.166 8.58637L12.217 8.56312L11.9888 8.53022L11.7573 8.45139V8.22454L11.88 8.12189H12.1504L12.2742 8.17747L12.3814 8.39865L12.5125 8.37823V8.35895L12.5502 8.372L12.93 8.31245L12.9839 8.12303L13.2004 8.17861V8.38391L12.9994 8.52512H13L13.0294 8.75027L13.7174 8.96691C13.7174 8.96691 13.7179 8.96975 13.7191 8.97542L13.8773 8.96181L13.8879 8.65726L13.3426 8.40375L13.3115 8.25744L13.764 8.09978L13.784 7.65742L13.3109 7.36308L13.2798 6.61731L12.6313 6.94284H12.3947L12.4569 6.37515L11.574 6.16248L11.2087 6.44434V7.3041L10.5518 7.51677L10.2886 8.07709L10.0032 8.12416V7.40732L9.38573 7.31998L9.077 7.11468L8.95262 6.65021L10.057 5.99007L10.5973 5.8222L10.6517 6.1931L10.9527 6.17722L10.976 5.99064L11.2909 5.9447L11.2964 5.87948L11.1609 5.8222L11.1298 5.62484L11.5169 5.59138L11.7506 5.34298L11.7634 5.32484L11.7662 5.32597L11.8372 5.25111L12.6507 5.14619L13.0105 5.45811L12.0671 5.97136L13.2676 6.26059L13.4231 5.85056H13.9478L14.1333 5.49327L13.7624 5.39856V4.94656L12.5991 4.42027L11.7962 4.51498L11.3431 4.75714L11.3741 5.34582L10.9005 5.27209L10.8278 4.94656L11.2814 4.52576L10.458 4.48379L10.2214 4.55695L10.1187 4.84051L10.4274 4.89382L10.3658 5.20914L9.84105 5.2409L9.75887 5.45074L8.99759 5.47229C8.99759 5.47229 8.97649 5.03106 8.94595 5.03106C8.91541 5.03106 9.54287 5.02029 9.54287 5.02029L9.99652 4.56772L9.74887 4.44125L9.4196 4.76792L8.87321 4.73616L8.54394 4.27339H7.84374L7.11301 4.83087H7.78266L7.84374 5.03106L7.66994 5.1961L8.41123 5.21708L8.5245 5.49044L7.68993 5.45868L7.6494 5.24827L7.12467 5.13258L6.84648 4.97492L6.2218 4.98002C8.26686 3.45843 10.7817 2.55783 13.4997 2.55783C16.6326 2.55783 19.495 3.7539 21.6789 5.71899L21.5317 5.9878L20.9603 6.21636L20.7193 6.48347L20.7749 6.79482L21.0697 6.83679L21.2474 7.29049L21.756 7.08122L21.8399 7.68804H21.6866L21.2691 7.62509L20.806 7.70449L20.3579 8.35101L19.7171 8.45366L19.6243 9.01398L19.8948 9.0792L19.8165 9.43932L19.1801 9.30889L18.5965 9.43932L18.4727 9.77109L18.5738 10.4675L18.9164 10.6314L19.4911 10.628L19.8792 10.5923L19.9975 10.277L20.6038 9.47222L21.0031 9.55558L21.3962 9.19263L21.4695 9.47619L22.4368 10.1426L22.3185 10.3048L21.8826 10.2809L22.0503 10.5237L22.3185 10.5838L22.6328 10.4499L22.6261 10.0632L22.7655 9.9917L22.6533 9.87034L22.0081 9.50284L21.8382 9.01455H22.3746L22.5462 9.18809L23.0082 9.59472L23.0276 10.0864L23.5062 10.607L23.6845 9.89359L24.016 9.70871L24.0782 10.2923L24.4019 10.6552L25.0477 10.6439C25.1726 10.9723 25.2848 11.3063 25.3831 11.6471L25.3159 11.7107ZM7.36343 7.68804L7.68771 7.53038L7.9809 7.60184L7.87984 8.00393L7.56333 8.10658L7.36343 7.68804ZM9.08422 8.63457V8.89489H8.34349L8.06585 8.81605L8.13526 8.63457L8.49119 8.48429H8.9776V8.63457H9.08422ZM9.42515 8.99753V9.24991L9.23969 9.37184L9.0087 9.41551C9.0087 9.41551 9.0087 9.03723 9.0087 8.99753H9.42515ZM9.21637 8.89489V8.59488L9.47124 8.83193L9.21637 8.89489ZM9.33242 9.50171V9.74727L9.15529 9.92875H8.76161L8.82324 9.65313L9.00926 9.63668L9.04757 9.54197L9.33242 9.50171ZM8.35182 8.99753H8.76105L8.23632 9.74671L8.01976 9.62818L8.06641 9.31286L8.35182 8.99753ZM10.0276 9.41551V9.6605H9.63393L9.52621 9.50171V9.27372H9.55731L10.0276 9.41551ZM9.66392 9.07863L9.77608 8.9584L9.96543 9.07863L9.81384 9.20624L9.66392 9.07863ZM25.5169 12.3492L25.5557 12.3027C25.5718 12.3742 25.5891 12.4457 25.6046 12.5182L25.5169 12.3492Z" fill="white"/>
<path d="M2.09998 9.86467V10.2594C2.23491 9.93726 2.38372 9.62307 2.54308 9.31512L2.09998 9.86467Z" fill="white"/>
</g>
<defs>
<clipPath id="clip0_52_1">
<rect width="27" height="29" fill="white"/>
</clipPath>
</defs>
</svg>
