<svg width="30" height="19" viewBox="0 0 30 19" fill="none" xmlns="http://www.w3.org/2000/svg">
<path d="M28.9893 8.91275L20.1785 0.671234C19.949 0.456594 19.5773 0.456594 19.3479 0.671234C19.1184 0.885874 19.1184 1.23356 19.3479 1.44815L27.1561 8.75178H1.55408C1.2294 8.75178 0.966675 8.99754 0.966675 9.30124C0.966675 9.60494 1.2294 9.85069 1.55408 9.85069H27.1561L19.3479 17.1543C19.1184 17.3689 19.1184 17.7166 19.3479 17.9312C19.4626 18.0385 19.6129 18.0922 19.7632 18.0922C19.9135 18.0922 20.0638 18.0385 20.1785 17.9312L28.9894 9.68967C29.2188 9.47508 29.2188 9.12739 28.9893 8.91275Z" fill="white"/>
</svg>
