<svg width="30" height="19" viewBox="0 0 30 19" fill="none" xmlns="http://www.w3.org/2000/svg">
<path d="M1.01067 10.0872L9.82153 18.3288C10.051 18.5434 10.4227 18.5434 10.6521 18.3288C10.8816 18.1141 10.8816 17.7664 10.6521 17.5518L2.84393 10.2482L28.4459 10.2482C28.7706 10.2482 29.0333 10.0025 29.0333 9.69876C29.0333 9.39506 28.7706 9.14931 28.4459 9.14931L2.84393 9.14931L10.6521 1.84573C10.8816 1.63109 10.8816 1.2834 10.6521 1.06881C10.5374 0.96152 10.3871 0.907847 10.2368 0.907847C10.0865 0.907847 9.93624 0.961519 9.82147 1.06881L1.01062 9.31033C0.781203 9.52492 0.781203 9.87261 1.01067 10.0872Z" fill="white"/>
</svg>
