<svg width="607" height="520" viewBox="0 0 607 520" fill="none" xmlns="http://www.w3.org/2000/svg">
<path opacity="0.15" d="M478.158 499.626H291.875C290.818 499.628 289.772 499.421 288.795 499.018C287.818 498.615 286.931 498.023 286.183 497.277C285.435 496.53 284.842 495.644 284.437 494.668C284.033 493.692 283.824 492.646 283.824 491.589C283.828 489.456 284.678 487.412 286.187 485.905C287.696 484.398 289.742 483.552 291.875 483.552H478.158C480.29 483.552 482.334 484.399 483.841 485.906C485.349 487.413 486.195 489.458 486.195 491.589C486.195 493.721 485.349 495.765 483.841 497.272C482.334 498.779 480.29 499.626 478.158 499.626Z" fill="#292929"/>
<path opacity="0.15" d="M259.7 500.977H218.164C215.202 500.977 212.802 503.378 212.802 506.339C212.802 509.301 215.202 511.702 218.164 511.702H259.7C262.662 511.702 265.062 509.301 265.062 506.339C265.062 503.378 262.662 500.977 259.7 500.977Z" fill="#292929"/>
<path d="M511.793 417.673C505.407 404.659 502.284 390.287 502.692 375.796C502.897 368.755 503.934 361.687 503.047 354.687C501.178 339.882 490.452 327.042 477.039 320.493C463.626 313.943 447.934 313.138 433.279 315.99C409.537 320.602 390.488 335.448 388.25 360.527C386.968 374.909 389.738 389.414 388.469 403.796C388.158 407.327 387.523 410.821 386.572 414.235L379.395 414.753L324.95 418.669C312.984 419.543 300.908 419.829 292.434 428.971C283.402 438.745 277.578 451.049 275.746 464.231C274.381 474.137 275.896 485.367 283.401 491.957C284.014 492.493 284.656 492.994 285.325 493.458H467.501C480.072 493.571 492.28 489.252 501.983 481.26C502.569 480.768 503.142 480.277 503.702 479.759C521.809 463.275 521.932 438.264 511.793 417.673Z" fill="white" stroke="#18216D" stroke-miterlimit="10"/>
<path d="M410.397 402.623C405.921 398.324 401.118 394.313 396.902 389.755C391.58 383.997 388.565 377.12 385.331 370.052C381.878 362.492 379.122 354.387 379.34 345.968C379.85 335.29 384.535 325.239 392.385 317.982C396.806 313.779 403.588 310.204 404.557 303.859C405.498 297.732 404.024 290.787 407.709 285.343C412.921 277.606 427.412 284.797 431.874 290.009C437.728 296.832 437.087 308.185 445.137 313.315C448.18 315.253 451.96 315.703 455.276 316.986C458.44 318.221 461.267 320.187 463.525 322.725C465.783 325.263 467.408 328.299 468.266 331.586C469.821 337.74 469.767 344.317 474.488 349.093C479.455 354.114 484.04 358.412 486.7 365.262C488.551 370.577 489.675 376.117 490.043 381.732C491.231 395.172 481.543 406.921 470.108 413.28C461.318 418.087 451.291 420.154 441.317 419.215C433.02 418.465 422.213 416.172 416.892 409.568C414.877 407.117 412.708 404.797 410.397 402.623Z" fill="#18216D"/>
<path d="M395.523 358.317C392.649 366.463 387.653 373.694 381.053 379.266C374.452 384.838 366.484 388.548 357.972 390.015C359.821 393.453 361.198 397.124 362.065 400.931C373.745 401.081 385.958 397.82 394.268 389.619C402.578 381.418 405.88 367.65 399.958 357.58C399.235 356.311 395.987 356.966 395.523 358.317Z" fill="white" stroke="#18216D" stroke-miterlimit="10"/>
<path d="M389.233 351.535C391.198 346.214 394.691 341.029 397.229 336.171L401.595 327.725C402.564 325.855 403.724 321.83 405.894 321.011C407.654 320.356 409.742 321.871 411.352 322.457C413.699 323.303 416.128 323.945 418.488 324.777C423.168 326.456 427.835 328.625 431.26 332.337C433.12 334.227 434.573 336.479 435.53 338.952C436.488 341.425 436.929 344.068 436.827 346.719C436.595 349.775 435.272 352.641 434.562 355.629C433.857 359.148 433.614 362.744 433.839 366.327C434.109 377.366 434.96 388.384 436.391 399.334C436.81 401.233 436.725 403.209 436.145 405.065C434.262 409.541 422.391 408.395 418.161 408.777C411.406 409.377 403.629 410.987 397.256 407.917C396.408 400.941 396.003 393.918 396.042 386.89C396.042 381.036 397.693 375.128 393.995 370.093C390.761 365.713 386.995 361.81 388.005 355.956C388.277 354.448 388.688 352.968 389.233 351.535Z" fill="#005FEC"/>
<path d="M403.997 318.787C404.153 316.971 404.153 315.145 403.997 313.329C403.833 311.841 402.755 311.227 401.636 310.3C396.847 306.37 395.891 300.175 397.406 294.444C397.597 293.836 397.72 293.209 397.775 292.575C397.782 291.981 397.741 291.388 397.652 290.801C397.415 288.547 398.001 286.284 399.303 284.428C402.223 280.485 409.209 280.239 413.098 282.777C418.392 286.202 419.116 293.516 419.307 299.82C419.457 304.732 419.593 309.631 419.743 314.543C419.893 319.81 420.316 326.442 414.817 329.225C412.892 330.18 410.684 330.398 408.609 329.839C407.372 329.537 406.248 328.883 405.375 327.956C403.301 325.569 403.847 321.707 403.997 318.787Z" fill="white" stroke="#18216D" stroke-miterlimit="10"/>
<path d="M417.096 307.639C414.187 310.43 410.403 312.131 406.385 312.456C409.996 313.499 413.806 313.658 417.492 312.92C417.238 311.171 417.105 309.406 417.096 307.639Z" fill="#18216D"/>
<path d="M272.376 484.985L280.113 477.016C282.994 474.226 285.616 471.18 287.945 467.915C289.842 465.06 291.287 461.931 292.23 458.636C293.062 455.716 293.444 452.427 291.984 449.78C291.068 448.336 289.758 447.183 288.208 446.457C286.659 445.732 284.934 445.465 283.238 445.687C279.848 446.202 276.692 447.723 274.177 450.053C268.419 454.911 264.844 461.106 261.46 467.683C257.612 475.16 253.614 482.561 249.466 489.883C248.661 491.248 246.737 493.977 247.01 495.642C247.283 497.306 249.739 497.92 251.595 498.084C255.866 498.48 259.959 497.743 263.016 494.605C266.072 491.466 269.252 488.26 272.376 484.985Z" fill="#005FEC"/>
<path d="M250.667 487.073C250.32 486.846 249.931 486.692 249.523 486.619C249.115 486.547 248.696 486.557 248.292 486.65C247.537 486.87 246.833 487.236 246.218 487.728C240.284 491.819 233.68 494.844 226.706 496.665C223.24 497.566 219.433 498.33 217.154 501.059C215.353 503.187 217.031 505.152 219.133 506.121C222.431 507.37 226.011 507.682 229.476 507.022C237.813 505.725 246.15 507.95 254.501 507.022C260.778 506.326 262.538 501.673 264.23 496.215C264.489 495.382 264.803 494.55 265.035 493.718C263.029 492.926 260.396 493.254 258.212 492.449C256.324 491.802 254.601 490.75 253.164 489.365C252.418 488.512 251.58 487.743 250.667 487.073Z" fill="#18216D"/>
<path d="M437.646 406.607C436.855 403.332 435.681 399.962 433.239 397.847C430.796 395.732 426.784 395.404 424.765 397.983C424.069 398.857 423.673 399.962 422.977 400.835C420.89 403.428 415.65 401.681 412.935 401.613C408.705 401.504 404.475 401.749 400.258 402.036C389.97 402.718 379.695 403.619 369.42 404.519L340.643 407.044C335.758 407.467 330.859 408.094 325.96 408.408C321.73 408.64 318.251 407.658 314.089 409.609C310.677 411.42 307.524 413.683 304.715 416.336C300.335 420.089 295.9 423.773 291.561 427.58C289.078 429.749 286.635 431.96 284.247 434.239C277.575 440.624 271.434 447.543 265.294 454.433C260.136 460.255 254.969 466.073 249.793 471.885C259.516 479.652 268.715 488.053 277.329 497.033C278.898 495.669 280.413 493.922 281.423 492.94C283.715 490.893 285.926 488.778 288.081 486.609C289.248 485.576 290.151 484.28 290.715 482.829C291.056 481.655 290.947 480.386 291.22 479.186C292.066 475.269 296.282 473.305 299.325 470.712C303.705 466.973 304.374 461.734 307.185 457.067C309.682 452.891 314.771 451.063 318.196 447.611C321.389 444.377 322.972 439.888 325.701 436.244C327.925 433.27 333.397 429.135 337.149 431.892C340.138 434.075 339.701 439.069 343.303 440.87C345.773 442.098 348.761 442.03 351.395 442.494C360.455 444.104 369.625 445.005 378.767 445.905L394.391 447.433C403.069 448.279 411.979 449.112 420.385 446.615C423.877 445.643 427.138 443.975 429.97 441.713C432.803 439.45 435.149 436.639 436.868 433.447C437.668 431.835 438.263 430.13 438.642 428.371C440.293 421.398 439.202 413.129 437.646 406.607Z" fill="white" stroke="#18216D" stroke-miterlimit="10"/>
<path d="M445.751 344.986C455.944 350.662 457.54 363.175 457.868 374.282C458.032 379.999 457.704 385.853 455.562 391.147C449.804 405.338 432.365 408.886 418.72 408.436C401.143 407.83 383.798 404.236 367.428 397.806C367.328 394.821 367.668 391.837 368.438 388.95C378.829 391.691 389.525 393.113 400.272 393.18C408.052 393.45 415.82 392.379 423.237 390.015C427.917 388.377 432.529 385.703 434.576 381.541C438.246 374.077 432.12 366.067 431.246 358.631C430.742 356.043 430.859 353.373 431.587 350.839C432.019 349.785 432.568 348.783 433.225 347.851C434.06 346.38 435.211 345.112 436.595 344.14C437.694 343.568 438.91 343.259 440.149 343.238C441.387 343.217 442.614 343.483 443.732 344.017C444.424 344.299 445.098 344.622 445.751 344.986Z" fill="white" stroke="#18216D" stroke-miterlimit="10"/>
<path d="M313.953 407.167H385.767C386.245 407.158 386.714 407.032 387.132 406.798C389.11 405.666 388.128 403.141 385.767 403.141H313.953C313.474 403.146 313.004 403.273 312.588 403.51C310.569 404.629 311.537 407.167 313.953 407.167Z" fill="#18216D"/>
<path d="M313.462 407.344H381.606C381.795 407.342 381.981 407.288 382.142 407.189C382.304 407.091 382.436 406.95 382.524 406.782C382.612 406.614 382.653 406.425 382.643 406.236C382.632 406.047 382.571 405.864 382.465 405.707L359.268 371.594C359.173 371.454 359.044 371.34 358.895 371.262C358.745 371.183 358.578 371.143 358.409 371.143H290.224C290.035 371.143 289.849 371.194 289.686 371.291C289.524 371.388 289.391 371.528 289.303 371.695C289.214 371.863 289.173 372.051 289.184 372.24C289.195 372.429 289.257 372.611 289.364 372.767L312.561 406.88C312.66 407.027 312.794 407.147 312.952 407.228C313.109 407.309 313.285 407.349 313.462 407.344Z" fill="#18216D"/>
<path d="M404.584 288.699C406.569 288.143 408.677 288.2 410.629 288.863C412.833 289.683 414.737 291.154 416.087 293.08C417.738 295.426 417.929 297.432 418.188 300.257C418.761 306.706 419.344 313.156 419.935 319.606C419.957 320.66 420.204 321.697 420.658 322.649C421.467 323.804 422.662 324.631 424.028 324.982C425.191 325.412 426.43 325.597 427.668 325.524C428.906 325.452 430.115 325.123 431.219 324.559C432.254 323.868 433.128 322.964 433.785 321.907C434.442 320.85 434.865 319.666 435.026 318.432C435.333 315.963 435.278 313.462 434.863 311.009C433.948 303.218 433.498 296.081 430.278 288.795C427.699 282.941 421.272 279.625 414.968 278.575C409.35 277.655 403.59 278.172 398.225 280.076C396.443 280.595 394.829 281.574 393.545 282.914C391.621 285.179 391.826 287.785 394.678 288.59C396.606 289.277 398.651 289.573 400.695 289.464C402.005 289.281 403.303 289.026 404.584 288.699Z" fill="#18216D"/>
<path d="M414.763 297.228C414.993 296.741 415.318 296.306 415.719 295.948C416.12 295.59 416.59 295.316 417.099 295.143C417.608 294.97 418.147 294.901 418.683 294.94C419.219 294.98 419.742 295.126 420.221 295.372C422.391 296.736 422.008 299.82 420.221 301.335C419.826 301.701 419.348 301.966 418.828 302.107C418.308 302.248 417.761 302.261 417.235 302.144C416.709 302.028 416.219 301.785 415.808 301.437C415.396 301.089 415.075 300.647 414.872 300.148C414.743 299.733 414.706 299.295 414.763 298.865C414.601 298.623 414.515 298.338 414.515 298.046C414.515 297.755 414.601 297.47 414.763 297.228Z" fill="white"/>
<path d="M435.777 365.644L438.274 364.73C438.297 364.638 438.343 364.554 438.407 364.485C438.472 364.416 438.552 364.364 438.642 364.334C444.905 362.015 451.032 359.354 457.254 356.939C455.645 352.563 453.669 348.332 451.346 344.29C449.597 340.685 447.212 337.426 444.305 334.67C440.824 331.394 436.924 328.595 432.707 326.346C431.642 325.8 419.566 320.779 419.485 320.997C418.537 324.181 417.871 327.441 417.492 330.74C417.4 332.882 417.195 335.019 416.878 337.14C415.918 340.584 416.278 344.263 417.888 347.455C420.344 351.863 422.705 356.393 425.379 360.65L429.773 367.637C431.421 366.921 433.123 366.337 434.863 365.89L435.777 365.644Z" fill="#005FEC"/>
<path d="M400.791 304.992C401.48 305.595 402.365 305.928 403.281 305.928C404.197 305.928 405.082 305.595 405.771 304.992C406.071 304.705 406.003 304.228 406.044 303.818C406.085 303.409 405.785 302.959 405.376 302.986C405.251 302.995 405.129 303.032 405.021 303.095C403.765 303.627 402.032 304.432 400.791 304.992Z" fill="#18216D"/>
<path d="M336.017 385.484C335.606 385.227 335.149 385.054 334.672 384.973C334.194 384.892 333.706 384.907 333.234 385.015C332.762 385.123 332.316 385.324 331.921 385.604C331.526 385.885 331.191 386.241 330.934 386.651C330.677 387.061 330.503 387.518 330.422 387.996C330.342 388.473 330.356 388.962 330.464 389.434C330.573 389.906 330.773 390.352 331.054 390.747C331.334 391.141 331.69 391.477 332.1 391.734" stroke="#C9CDD1" stroke-miterlimit="10"/>
<path d="M361.534 461.338C359.705 456.139 358.559 450.613 356.949 445.318C356.301 442.9 355.279 440.598 353.92 438.496C352.539 436.362 350.388 434.842 347.916 434.252C343.686 433.447 339.469 436.463 337.532 440.311C332.483 450.285 336.795 461.351 343.331 469.361C345.555 472.09 347.957 474.642 350.249 477.303C352.541 479.963 354.206 483.525 356.553 486.049C360.183 489.938 366.473 487.414 369.448 483.893C372.996 479.691 368.424 474 365.996 470.466C364.114 467.632 362.614 464.563 361.534 461.338Z" fill="#005FEC"/>
<path d="M368.233 476.17L367.564 476.634C364.038 479.022 360.355 481.17 356.539 483.061C355.618 483.486 354.813 484.128 354.192 484.93C353.21 486.404 354.274 487.468 354.479 488.928C355.063 493.422 354.667 497.988 353.319 502.314C351.954 506.408 346.878 512.152 348.161 516.723C348.993 519.739 353.237 519.289 355.598 518.634C359.036 517.528 361.933 515.171 363.716 512.03C365.545 509.014 366.868 505.698 368.479 502.56C369.971 499.653 371.72 496.886 373.705 494.291C374.709 493.115 375.571 491.823 376.27 490.443C376.858 488.959 377.021 487.341 376.742 485.77C376.462 484.199 375.751 482.736 374.687 481.546C373.568 480.264 372.75 478.735 371.672 477.453C370.212 475.624 369.734 475.201 368.233 476.17Z" fill="#18216D"/>
<path d="M319.165 439.833C319.738 441.334 320.025 442.903 320.53 444.431C321.48 447.093 322.729 449.639 324.255 452.018C327.748 457.995 331.25 463.967 334.762 469.934L340.015 478.885C340.247 479.281 340.643 480.114 341.12 481.096C350.617 475.538 359.9 469.625 368.97 463.357C366.923 460.014 364.604 456.794 364.126 452.946C363.88 451.008 364.126 449.016 363.908 447.065C363.335 442.357 359.964 438.578 357.153 434.784C352.132 427.962 348.557 420.17 344.286 412.816C343.781 411.942 343.263 411.083 342.73 410.223C339.843 405.32 336.222 400.888 331.992 397.083C329.836 395.305 327.514 393.738 325.06 392.403C322.999 391.215 321.485 389.51 319.261 388.596C309.6 384.625 301.986 392.43 301.686 402.241C301.481 409.186 304.592 415.79 308.031 421.821C310.387 425.988 312.934 430.027 315.672 433.938C317.071 435.755 318.244 437.734 319.165 439.833Z" fill="white" stroke="#18216D" stroke-miterlimit="10"/>
<path d="M425.215 353.882C425.806 361.962 424.966 370.083 422.732 377.87C423.155 376.41 427.234 373.859 428.408 372.699C429.581 371.539 432.938 368.96 433.143 366.995C433.347 365.03 430.946 362.342 430.032 360.855C428.553 358.445 426.945 356.118 425.215 353.882Z" fill="#18216D"/>
<path d="M419.784 314.53C419.935 319.797 420.358 326.428 414.859 329.212C412.933 330.167 410.725 330.385 408.65 329.826" fill="white"/>
<path d="M419.784 314.53C419.935 319.797 420.358 326.428 414.859 329.212C412.933 330.167 410.725 330.385 408.65 329.826" stroke="#18216D" stroke-miterlimit="10"/>
<path d="M413.262 448.375C425.297 446.424 436.882 453.724 449.04 454.665L413.262 448.375Z" fill="white"/>
<path d="M413.262 448.375C425.297 446.424 436.882 453.724 449.04 454.665" stroke="#18216D" stroke-miterlimit="10"/>
<path d="M441.903 444.595C448.199 446.313 454.794 446.63 461.225 445.523L441.903 444.595Z" fill="white"/>
<path d="M441.903 444.595C448.199 446.313 454.794 446.63 461.225 445.523" stroke="#18216D" stroke-miterlimit="10"/>
<path d="M466.096 402.882C467.373 413.521 464.435 424.238 457.909 432.738" stroke="#18216D" stroke-miterlimit="10"/>
<path d="M288.041 485.804C287.604 482.761 287.249 474.887 283.538 473.741C274.914 471.08 280.345 491.985 281.109 494.686C281.172 494.935 281.284 495.168 281.439 495.371C281.593 495.575 281.788 495.746 282.009 495.874C282.317 496.645 282.782 497.344 283.374 497.926C283.966 498.509 284.672 498.962 285.448 499.258C285.797 499.355 286.166 499.356 286.517 499.263C286.867 499.169 287.186 498.984 287.44 498.725C287.669 498.5 287.871 498.248 288.041 497.975C288.27 497.798 288.453 497.567 288.572 497.303C288.691 497.039 288.743 496.749 288.723 496.46C288.73 496.424 288.73 496.387 288.723 496.351C289.542 493.117 288.423 488.451 288.041 485.804Z" fill="#18216D"/>
<path d="M268.528 466.591C265.622 466.755 262.592 470.193 260.682 472.049C257.815 474.882 255.279 478.032 253.123 481.437C252.97 481.658 252.867 481.909 252.821 482.173C252.774 482.438 252.786 482.709 252.855 482.968C252.924 483.228 253.048 483.469 253.219 483.676C253.39 483.883 253.604 484.05 253.846 484.166C254.555 486.336 257.148 486.677 259.304 486.158C262.617 485.219 265.527 483.214 267.586 480.455C269.483 478.067 271.844 474.901 272.308 471.817C272.676 469.361 271.366 466.427 268.528 466.591Z" fill="#18216D"/>
<path d="M293.321 450.735C288.3 451.063 278.939 451.118 276.06 456.194C275.788 456.641 275.608 457.137 275.53 457.655C275.452 458.172 275.476 458.7 275.603 459.207C275.73 459.715 275.957 460.192 276.269 460.612C276.582 461.031 276.975 461.385 277.425 461.652C280.154 463.562 283.688 462.757 286.635 461.938C287.068 461.831 287.45 461.575 287.713 461.215C290.004 460.705 292.206 459.859 294.249 458.704C296.2 457.613 298.752 455.975 298.465 453.478C298.179 450.981 295.423 450.599 293.321 450.735Z" fill="#18216D"/>
<path d="M296.378 433.338C294.767 428.958 291.165 425.355 287.454 422.708C287.238 422.538 286.986 422.421 286.716 422.365C286.447 422.31 286.169 422.319 285.904 422.39C285.639 422.462 285.394 422.595 285.189 422.778C284.984 422.961 284.825 423.19 284.725 423.445C283.98 423.246 283.195 423.26 282.459 423.487C281.723 423.714 281.066 424.144 280.563 424.728C277.916 427.621 279.307 432.915 281.136 435.876C283.142 439.096 288.381 442.698 292.325 442.153C296.61 441.552 297.66 436.817 296.378 433.338Z" fill="#18216D"/>
<path d="M261.773 450.517C261.371 450.379 260.934 450.379 260.532 450.517C260.097 450.423 259.647 450.43 259.215 450.537C258.783 450.644 258.381 450.848 258.04 451.133C257.7 451.419 257.428 451.779 257.248 452.185C257.067 452.591 256.981 453.034 256.998 453.478C256.998 456.003 258.853 458.65 260.668 460.301C262.77 462.177 265.421 463.325 268.228 463.576C268.769 463.572 269.288 463.355 269.671 462.972C270.054 462.589 270.271 462.071 270.274 461.529C270.219 459.026 269.364 456.607 267.834 454.625C266.304 452.644 264.181 451.204 261.773 450.517Z" fill="#18216D"/>
<path d="M318.878 446.355C318.032 444.991 317.623 443.476 316.245 442.63C315.479 442.186 314.593 441.993 313.712 442.078C312.831 442.164 311.998 442.524 311.333 443.108C308.344 445.318 306.666 449.63 306.161 453.192C305.752 456.112 305.615 460.969 309.259 461.856C311.919 462.498 313.584 460.56 314.717 458.349C315.648 457.176 316.389 455.864 316.914 454.461C317.615 452.717 318.047 450.876 318.196 449.003C318.428 448.886 318.631 448.722 318.794 448.52C318.956 448.319 319.074 448.085 319.139 447.834C319.203 447.583 319.213 447.322 319.169 447.067C319.124 446.811 319.025 446.569 318.878 446.355Z" fill="#18216D"/>
<path d="M392.385 436.64C389.656 433.365 385.221 437.309 382.97 439.164C381.124 440.705 379.425 442.414 377.894 444.268C376.898 445.482 375.056 447.188 375.274 448.907C375.274 449.071 375.342 449.234 375.383 449.398C375.27 449.8 375.193 450.211 375.151 450.626C375.158 451.167 375.376 451.683 375.758 452.066C376.141 452.448 376.657 452.666 377.198 452.673C381.387 452.673 385.385 449.016 388.223 446.26C390.325 444.213 395.032 439.86 392.385 436.64Z" fill="#18216D"/>
<path d="M375.929 419.666C373.282 417.496 369.475 415.667 365.968 416.186C361.874 416.786 360.769 420.211 362.366 423.732C362.688 424.428 363.072 425.095 363.512 425.724C363.55 425.808 363.582 425.895 363.607 425.983C364.32 427.731 365.431 429.288 366.853 430.529C368.275 431.77 369.967 432.662 371.794 433.133C374.523 433.829 381.087 433.829 381.701 430.022C382.315 426.215 378.658 421.781 375.929 419.666Z" fill="#18216D"/>
<path d="M413.248 414.999C411.652 411.042 406.248 410.441 402.687 410.823C399.589 411.165 393.722 411.628 391.484 414.453C389.819 415.818 388.564 417.837 389.942 419.843C391.675 422.354 396.874 422.463 399.562 422.572C402.333 422.71 405.093 422.127 407.572 420.88C410.533 420.157 414.613 418.369 413.248 414.999Z" fill="#18216D"/>
<path d="M414.845 432.628C412.007 429.463 406.467 428.917 404.42 433.256C403.206 435.849 403.861 438.714 405.13 441.443C405.653 443.673 406.849 445.687 408.555 447.215L409.141 448.088C409.331 448.368 409.585 448.599 409.881 448.762C410.178 448.925 410.508 449.016 410.847 449.026C411.185 449.037 411.52 448.967 411.826 448.823C412.133 448.679 412.4 448.465 412.607 448.197C413.778 448.109 414.91 447.735 415.902 447.107C416.894 446.478 417.717 445.616 418.297 444.595C419.948 441.197 417.178 435.221 414.845 432.628Z" fill="#18216D"/>
<path d="M443.363 422.845C443.411 422.621 443.409 422.389 443.359 422.165C443.309 421.942 443.212 421.732 443.073 421.549C442.935 421.366 442.758 421.216 442.557 421.107C442.355 420.999 442.132 420.935 441.903 420.921C436.936 420.239 431.519 419.433 426.784 421.562C424.356 422.654 421.326 425.574 422.8 428.562C424.669 432.151 431.669 432.506 435.081 432.656C438.724 432.765 443.677 431.851 445.587 428.303C446.993 425.724 445.738 423.964 443.363 422.845Z" fill="#18216D"/>
<path d="M362.052 436.408C361.588 434.17 359.678 433.447 357.617 433.461C357.433 433.032 357.098 432.686 356.676 432.487C356.253 432.289 355.773 432.251 355.325 432.383C350.992 433.413 347.14 435.892 344.409 439.41C342.526 441.853 339.947 445.987 343.263 448.416C346.579 450.845 351.927 447.42 354.738 445.4C357.154 443.681 362.775 439.833 362.052 436.408Z" fill="#18216D"/>
<path d="M347.493 460.655C340.356 461.515 334.68 469.88 330.764 475.092C330.521 475.378 330.388 475.741 330.388 476.115C330.388 476.49 330.521 476.853 330.764 477.139C330.584 477.598 330.499 478.088 330.513 478.58C330.527 479.072 330.64 479.557 330.845 480.004C333.725 486.104 344.109 475.665 346.374 473.182C348.352 471.053 351.572 467.724 352.023 464.763C352.473 461.802 350.085 460.342 347.493 460.655Z" fill="#18216D"/>
<path d="M333.438 435.044C333.347 434.746 333.19 434.472 332.98 434.242C332.769 434.012 332.51 433.831 332.222 433.714C331.933 433.596 331.622 433.544 331.311 433.562C331 433.58 330.696 433.666 330.423 433.816C323.723 438.005 323.054 448.675 323.464 455.743C323.475 456.164 323.621 456.571 323.878 456.904C324.135 457.238 324.492 457.481 324.896 457.599C325.104 458.368 325.573 459.041 326.223 459.502C326.873 459.963 327.663 460.183 328.458 460.123C332.551 460.014 334.134 453.642 334.775 450.572C335.869 445.377 335.404 439.975 333.438 435.044Z" fill="#18216D"/>
<path d="M350.454 409.705C350.362 409.286 350.119 408.915 349.772 408.663C349.425 408.412 348.997 408.297 348.571 408.34H348.325C344.586 406.712 340.441 406.26 336.44 407.044C331.76 407.044 326.029 408.886 326.206 414.085C326.424 420.552 339.374 418.178 343.167 417.441C346.333 416.923 355.011 413.389 350.454 409.705Z" fill="#18216D"/>
<path d="M319.657 418.56C319.193 418.724 318.729 418.929 318.292 419.106C317.263 419.385 316.292 419.847 315.427 420.471C313.851 421.283 312.353 422.238 310.951 423.322C308.672 425.11 305.357 427.771 304.415 430.636C303.583 433.106 305.589 435.044 307.99 435.044C310.719 435.044 313.598 433.229 315.645 431.632C317.323 430.268 322.781 424.51 322.113 421.194C322.386 419.734 321.349 417.946 319.657 418.56Z" fill="#18216D"/>
<path d="M319.206 396.087C318.388 392.184 315.481 393.139 312.793 393.63C312.461 393.651 312.129 393.651 311.797 393.63C309.068 393.822 306.653 397.724 305.452 399.962C303.924 402.691 302.723 406.334 304.374 409.309C307.785 415.517 314.976 407.59 316.914 404.274C318.265 402.022 319.779 398.816 319.206 396.087Z" fill="#18216D"/>
<path d="M548.922 79.6011H297.851V231.062H548.922V79.6011Z" fill="white" stroke="#18216D" stroke-miterlimit="10"/>
<path d="M316.737 224.212C315.481 216.162 317.009 207.402 322.195 201.111C324.637 198.164 327.844 195.749 329.386 192.256C330.09 190.467 330.514 188.579 330.641 186.661C331.678 176.113 329.89 164.597 335.553 155.632C337.832 152.016 341.161 149.178 343.74 145.739C348.393 139.394 350.113 131.357 354.274 124.698C358.436 118.04 367.046 112.704 373.992 116.388C380.937 120.073 381.428 129.556 379.313 136.938C377.198 144.32 373.2 151.497 373.896 159.139C374.524 165.811 378.713 171.747 379.463 178.419C380.296 185.774 376.871 192.979 376.734 200.374C376.489 209.762 381.415 218.85 380.309 228.17C379.204 237.489 372.313 245.008 364.017 248.978C355.311 253.154 336.085 257.356 327.584 250.534C321.54 245.731 317.814 231.185 316.737 224.212Z" fill="#005FEC"/>
<path d="M439.543 232.4C438.288 224.349 439.816 215.589 445.001 209.298C449.286 204.113 452.983 202.285 452.779 195.408C452.533 186.702 449.613 178.924 450.978 169.973C452.792 158.074 459.656 147.486 462.126 135.71C464.104 126.158 463.49 115.474 469.562 107.928C471.333 105.516 473.959 103.871 476.903 103.33C484.231 102.334 489.402 110.849 489.757 118.244C490.112 125.64 487.874 133.254 489.975 140.322C492.227 147.936 499.145 153.626 500.81 161.39C501.778 165.961 500.81 170.751 501.437 175.376C501.969 179.334 503.661 183.018 505.012 186.77C512.763 208.289 510.266 245.935 486.81 257.165C478.104 261.341 458.878 265.544 450.377 258.721C444.346 253.918 440.621 239.372 439.543 232.4Z" fill="#005FEC"/>
<path d="M472.987 244.735V244.653C473.133 235.896 475.202 227.279 479.045 219.409C485.418 206.406 496.593 195.462 499.254 181.203C500.537 174.38 499.677 167.258 499.95 160.271C500.223 153.285 501.901 145.835 507.059 141.168C509.46 138.985 513.145 137.525 515.942 139.19C517.466 140.267 518.592 141.816 519.149 143.597C521.878 150.679 521.755 158.525 522.764 166.07C524.361 177.983 533.285 184.014 534.649 195.544C536.191 208.684 534.281 221.961 530.447 234.555C526.271 248.282 522.915 262.61 508.614 269.473C496.443 275.314 484.49 277.115 477.094 263.688C474.113 257.83 472.698 251.301 472.987 244.735Z" fill="#005FEC"/>
<path d="M356.744 228.129C356.553 224.936 358.327 221.988 360.169 219.396C367.142 209.585 375.956 201.193 382.342 190.973C385.876 185.324 389.888 179.961 391.28 173.234C391.819 169.974 392.066 166.673 392.017 163.369C391.984 156.731 392.903 150.124 394.746 143.747C397.802 134.195 404.475 125.654 413.508 121.314C428.518 114.123 451.714 114.751 459.901 131.971C463.108 138.698 463.736 146.49 463.777 153.803C463.777 162.673 462.808 171.61 463.981 180.411C465.346 190.304 470.94 196.39 478.172 202.749C483.153 207.129 486.96 211.29 487.819 217.977C488.638 224.349 485.677 230.68 481.447 235.292C475.457 241.828 467.092 245.813 458.496 247.982C449.899 250.152 440.976 250.643 432.133 251.175C422.022 251.789 411.857 252.458 401.8 251.325C391.744 250.193 381.674 247.109 373.664 240.928C370.703 238.649 367.933 235.879 364.494 234.323C361.056 232.768 357.031 233.095 356.744 228.129Z" fill="#18216D"/>
<path d="M429.596 239.509C425.484 240.047 421.339 240.294 417.192 240.245C414.763 240.245 411.106 240.396 409.128 238.758C407.149 237.121 407.054 234.351 406.999 232.195C406.795 224.472 408.364 216.844 409.155 209.162C409.756 202.981 409.81 196.54 407.914 190.564C406.181 185.105 403.561 180.316 402.701 174.476C402.496 173.111 402.701 169.864 401.787 168.731C400.873 167.599 399.317 167.844 398.43 166.698C397.566 165.475 397.16 163.987 397.284 162.495C397.404 160.826 397.975 159.221 398.936 157.851C399.898 156.481 401.213 155.398 402.742 154.718C402.8 154.702 402.85 154.665 402.882 154.615C402.915 154.565 402.928 154.504 402.919 154.445C402.005 144.893 406.044 134.809 414.518 130.156C423.223 125.394 433.239 121.847 442.422 127.973C446.877 131.066 450.081 135.649 451.455 140.895C451.919 142.492 453.42 157.378 453.516 158.102C454.25 157.996 455 158.107 455.673 158.419C456.347 158.732 456.915 159.233 457.309 159.862C458.081 161.133 458.487 162.592 458.482 164.078C458.584 165.589 458.215 167.095 457.425 168.387C456.636 169.68 455.466 170.696 454.075 171.297C450.664 172.661 451.592 176.222 450.746 179.484C449.704 183.553 447.847 187.369 445.288 190.7C444.688 191.391 444.196 192.169 443.828 193.006C443.541 194.012 443.458 195.065 443.582 196.103C444.173 207.092 444.428 218.09 444.346 229.097C444.346 232.413 443.841 235.142 440.839 236.739C437.332 238.553 433.444 238.976 429.596 239.509Z" fill="white" stroke="#18216D" stroke-miterlimit="10"/>
<path d="M413.658 128.819C409.178 130.596 405.362 133.725 402.742 137.77C400.283 142.142 399.213 147.158 399.672 152.152C399.822 153.79 400.941 155.673 402.564 155.468C403.847 155.304 404.57 153.954 405.293 152.862C409.919 145.835 420.985 144.334 428.736 143.815C430.701 143.692 432.666 143.651 434.644 143.692C439.952 143.802 445.137 145.234 450.377 145.453C454.471 145.63 459.014 142.724 461.621 139.763C464.468 136.52 466.023 132.343 465.987 128.028C466.046 126.127 465.517 124.254 464.472 122.665C462.699 120.236 459.274 119.295 456.408 119.459C453.684 119.605 450.989 120.091 448.385 120.905C445.811 121.966 443.136 122.766 440.402 123.293C437.578 123.634 434.74 124.316 431.888 124.753C425.734 125.64 419.416 126.295 413.658 128.819Z" fill="#18216D"/>
<path d="M429.691 186.975C427.303 187.698 425.42 188.339 422.95 187.384C422.282 187.111 421.804 188.244 422.459 188.544C424.847 189.663 428.231 189.909 430.305 188.026C430.405 187.928 430.469 187.799 430.487 187.661C430.506 187.522 430.477 187.382 430.407 187.261C430.336 187.141 430.228 187.047 430.098 186.995C429.968 186.943 429.825 186.936 429.691 186.975Z" fill="#18216D"/>
<path d="M429.254 171.419H428.668L424.288 172.102C419.13 172.907 422.718 179.511 426.812 178.515C427.581 178.357 428.305 178.025 428.927 177.546C429.672 176.82 430.242 175.933 430.592 174.953C430.875 174.395 431.056 173.789 431.124 173.166C431.158 172.853 431.107 172.536 430.974 172.25C430.842 171.964 430.634 171.719 430.373 171.542C430.022 171.387 429.631 171.344 429.254 171.419Z" fill="#18216D"/>
<path d="M426.334 166.862C425.311 166.862 426.334 160.831 426.416 160.039C426.604 158.221 426.554 156.386 426.266 154.581C426.266 154.295 425.816 154.377 425.802 154.581C425.625 158.347 424.779 162.018 424.561 165.743C424.479 167.107 424.943 168.472 426.498 167.994C426.606 167.933 426.692 167.842 426.747 167.73C426.801 167.619 426.821 167.495 426.803 167.372C426.786 167.25 426.731 167.136 426.648 167.045C426.564 166.953 426.455 166.89 426.334 166.862Z" fill="#18216D"/>
<path d="M414.695 159.534C414.637 159.34 414.518 159.169 414.357 159.046C414.195 158.923 413.998 158.855 413.795 158.852H413.699C413.511 158.852 413.327 158.902 413.164 158.995C413.002 159.088 412.866 159.223 412.771 159.384C412.771 159.384 412.771 159.384 412.771 159.453C412.63 159.622 412.543 159.83 412.524 160.049C412.504 160.269 412.552 160.489 412.662 160.681L412.744 160.79C413.317 161.581 414.845 161.431 414.777 160.244C414.777 160.005 414.75 159.767 414.695 159.534Z" fill="#18216D"/>
<path d="M439.202 158.279C438.287 157.433 436.909 158.811 437.837 159.644C437.865 159.787 437.916 159.925 437.987 160.053C438.067 160.189 438.18 160.302 438.317 160.38C438.453 160.458 438.608 160.5 438.765 160.5C438.922 160.5 439.077 160.458 439.213 160.38C439.35 160.302 439.463 160.189 439.543 160.053C439.688 159.761 439.734 159.429 439.672 159.108C439.611 158.788 439.445 158.496 439.202 158.279Z" fill="#18216D"/>
<path d="M432.379 199.351C435.834 201.4 439.432 203.197 443.145 204.727C443.461 204.862 443.805 204.918 444.147 204.891C444.489 204.864 444.82 204.755 445.11 204.573C445.401 204.39 445.644 204.141 445.817 203.844C445.991 203.548 446.09 203.214 446.106 202.871C446.218 199.437 446.699 196.024 447.539 192.692C448.003 190.973 449.531 189.567 449.531 187.794C449.542 187.547 449.485 187.301 449.367 187.084C449.189 186.838 448.929 186.665 448.633 186.594C448.338 186.524 448.027 186.562 447.757 186.702C447.216 186.986 446.749 187.392 446.393 187.889C442.613 192.392 438.56 194.111 432.993 195.421C432.576 195.517 432.197 195.736 431.906 196.049C431.614 196.362 431.423 196.755 431.356 197.178C431.29 197.601 431.353 198.034 431.535 198.421C431.717 198.809 432.011 199.132 432.379 199.351Z" fill="#18216D"/>
<path d="M548.922 79.6011H297.851V231.062H548.922V79.6011Z" stroke="#18216D" stroke-miterlimit="10"/>
<path d="M305.424 70.418H541.376C543.548 70.418 545.63 71.2805 547.165 72.8159C548.701 74.3513 549.563 76.4337 549.563 78.6051V88.8662H297.128V78.6051C297.128 77.5207 297.343 76.4471 297.762 75.4466C298.18 74.4461 298.793 73.5387 299.565 72.777C300.336 72.0153 301.252 71.4145 302.258 71.0096C303.264 70.6046 304.34 70.4035 305.424 70.418Z" fill="#18216D"/>
<path d="M308.768 85.6459C311.556 85.6459 313.816 83.3855 313.816 80.5972C313.816 77.8089 311.556 75.5485 308.768 75.5485C305.979 75.5485 303.719 77.8089 303.719 80.5972C303.719 83.3855 305.979 85.6459 308.768 85.6459Z" fill="white"/>
<path d="M332.415 80.3653C332.457 81.3598 332.203 82.3445 331.686 83.195C331.169 84.0455 330.411 84.7236 329.509 85.1436C328.606 85.5636 327.599 85.7067 326.616 85.5547C325.632 85.4027 324.715 84.9626 323.981 84.2899C323.248 83.6171 322.73 82.742 322.493 81.7751C322.257 80.8082 322.312 79.7928 322.652 78.8574C322.993 77.9219 323.603 77.1083 324.405 76.5194C325.208 75.9304 326.167 75.5926 327.161 75.5485C328.496 75.493 329.798 75.9688 330.783 76.8716C331.768 77.7744 332.354 79.0307 332.415 80.3653Z" fill="white"/>
<path d="M332.414 80.3652C332.457 81.3598 332.203 82.3445 331.686 83.195C331.168 84.0455 330.411 84.7236 329.508 85.1436C328.606 85.5636 327.599 85.7066 326.615 85.5547C325.631 85.4027 324.715 84.9626 323.981 84.2899C323.247 83.6171 322.73 82.742 322.493 81.7751C322.256 80.8082 322.312 79.7928 322.652 78.8573C322.992 77.9219 323.602 77.1083 324.405 76.5193C325.207 75.9304 326.167 75.5926 327.161 75.5485C328.496 75.493 329.798 75.9688 330.783 76.8716C331.767 77.7744 332.354 79.0307 332.414 80.3652Z" fill="white"/>
<path d="M321.512 74.4569L333.247 86.7375" stroke="#18216D" stroke-miterlimit="10"/>
<path d="M321.239 86.4646L333.52 74.7162" stroke="#18216D" stroke-miterlimit="10"/>
<path d="M258.28 27.0673H74.0707V178.528H258.28V27.0673Z" fill="white" stroke="#18216D" stroke-miterlimit="10"/>
<path d="M93.8429 82.2347C93.4079 79.5445 93.5844 76.791 94.3593 74.1784C95.1341 71.5658 96.4873 69.1612 98.3185 67.1431C99.683 65.7786 101.047 64.8644 101.907 63.0496C102.225 62.205 102.44 61.3254 102.548 60.4297C103.118 57.7659 104.241 55.2514 105.844 53.049C107.447 50.8465 109.495 49.0052 111.854 47.6442C116.985 44.3967 122.102 44.3284 127.969 43.346C129.702 43.0594 131.367 42.5136 133.086 42.2271C134.725 41.9702 136.392 41.938 138.04 42.1316C142.853 42.7974 147.37 44.845 151.043 48.0263C153.444 50.106 155.418 52.6315 156.856 55.4629C158.221 57.6734 158.753 60.1977 160.008 62.4219C161.455 64.9599 163.174 64.878 165.616 66.0515C167.819 67.1186 169.739 68.6885 171.223 70.6344C172.707 72.5804 173.712 74.848 174.158 77.2542C176.109 89.1255 163.938 97.7219 153.117 95.2658C144.93 93.4373 132.65 93.4919 126.4 99.8642C123.794 102.484 121.597 105.568 118.554 107.669C118.24 107.874 117.927 108.079 117.599 108.27C114.79 109.892 111.62 110.788 108.378 110.876C105.135 110.964 101.921 110.242 99.028 108.774C91.3731 104.544 91.9735 95.7024 94.4296 88.4159C94.7107 87.759 94.868 87.0559 94.8935 86.3418C94.825 85.7284 94.6735 85.1271 94.4432 84.5543C94.1832 83.7978 93.9825 83.0223 93.8429 82.2347Z" fill="#005FEC"/>
<path d="M130.794 128.505C133.837 134.482 140.346 137.443 147.509 136.474H147.673C149.487 136.182 151.222 135.526 152.776 134.546C154.33 133.567 155.67 132.284 156.716 130.774C157.762 129.264 158.493 127.559 158.864 125.76C159.235 123.961 159.239 122.105 158.876 120.305L156.461 107.915C156.028 106.295 155.953 104.6 156.242 102.948C156.756 101.503 157.448 100.128 158.303 98.8544C163.761 88.9617 157.566 77.7181 152.517 69.1353C150.503 65.6591 147.652 62.7419 144.222 60.6494C140.793 58.557 136.894 57.3556 132.882 57.1548C115.239 56.4317 106.547 72.4511 109.972 88.143C111.936 97.0669 117.299 103.466 124.135 109.143C130.971 114.819 131.354 120.004 130.794 128.505Z" fill="white" stroke="#18216D" stroke-miterlimit="10"/>
<path d="M114.242 72.6694C113.939 74.0125 113.883 75.3999 114.079 76.7629C114.468 80.0604 113.914 83.4007 112.482 86.3964C111.67 87.7944 110.643 89.056 109.439 90.1352C108.472 91.1417 107.299 91.9281 106.001 92.4412C105.351 92.6862 104.651 92.7695 103.962 92.684C103.272 92.5984 102.614 92.3465 102.044 91.95C101.502 91.4603 101.086 90.8479 100.829 90.1642C100.573 89.4805 100.484 88.7453 100.57 88.0202C100.74 86.5763 101.06 85.1541 101.525 83.7765C102.207 81.1976 102.48 78.5231 103.203 75.9579C103.795 73.3304 105.263 70.9823 107.365 69.299C108.168 68.7164 109.092 68.324 110.068 68.1514C111.045 67.9788 112.047 68.0307 113.001 68.3029C113.683 68.5349 115.129 69.1489 115.375 69.9131C115.716 71.0047 114.584 71.5778 114.242 72.6694Z" fill="#005FEC"/>
<path d="M119.004 71.414C120.76 70.9501 122.458 70.2911 124.067 69.4491C124.446 69.2101 124.876 69.0651 125.322 69.0261C125.708 69.0519 126.082 69.1688 126.414 69.3673C128.884 70.7603 131.59 71.6855 134.396 72.0963C137.221 72.2737 140.373 70.9501 141.328 68.2893C141.464 67.9209 141.628 67.4569 142.024 67.4024C142.164 67.4034 142.302 67.4344 142.429 67.4932C142.556 67.5521 142.669 67.6374 142.761 67.7435C145.967 70.4725 149.242 75.1528 154.113 72.9696C156.706 71.8097 158.043 68.876 158.207 65.9833C158.507 59.7065 153.868 53.9619 148.151 51.342C142.433 48.7222 135.87 48.7494 129.634 49.5545C125.22 50.0085 120.91 51.1839 116.876 53.034C112.55 55.1627 110.967 58.4921 108.607 62.5856C107.976 63.4908 107.563 64.5295 107.4 65.6206C107.236 66.7117 107.327 67.8258 107.665 68.876C109.03 71.8507 112.946 72.4784 116.166 72.0144C117.124 71.8751 118.072 71.6746 119.004 71.414Z" fill="#005FEC"/>
<path d="M145.926 107.929C145.418 108.176 144.893 108.39 144.357 108.57C143.688 108.802 140.768 108.856 140.495 109.252C139.649 110.494 142.72 110.78 143.224 110.862C144.53 111.051 145.811 111.38 147.045 111.845C147.991 112.265 148.903 112.758 149.774 113.318L153.144 115.297C152.384 111.523 151.928 107.695 151.78 103.849C151.78 104.394 148.969 106.086 148.505 106.4C147.682 106.969 146.82 107.48 145.926 107.929Z" fill="#18216D"/>
<path d="M123.18 83.4354C122.939 83.368 122.685 83.368 122.444 83.4354C122.204 83.5028 121.986 83.6349 121.816 83.8174C121.733 83.9054 121.672 84.0106 121.636 84.1254C121.6 84.2402 121.59 84.3616 121.607 84.4808C121.624 84.5999 121.667 84.7137 121.734 84.8138C121.801 84.9139 121.889 84.9977 121.993 85.0592C122.073 85.1578 122.172 85.239 122.285 85.2977C122.398 85.3564 122.521 85.3913 122.648 85.4003C122.814 85.4092 122.98 85.3819 123.134 85.3203C123.288 85.2587 123.428 85.1642 123.542 85.0435C123.656 84.9228 123.743 84.7787 123.796 84.6212C123.849 84.4637 123.867 84.2965 123.849 84.1313C123.827 83.9586 123.751 83.7975 123.63 83.672C123.51 83.5466 123.352 83.4636 123.18 83.4354Z" fill="#18216D"/>
<path d="M145.476 80.1196C145.321 79.8877 145.089 79.7184 144.821 79.642C144.789 79.5806 144.743 79.5279 144.686 79.4886C144.629 79.4493 144.563 79.4245 144.495 79.4164C144.426 79.4083 144.357 79.4172 144.292 79.4423C144.228 79.4673 144.17 79.5078 144.125 79.5602C143.62 80.065 143.511 80.2015 143.661 80.9247C143.689 81.0456 143.75 81.1564 143.837 81.2454C143.923 81.3344 144.032 81.398 144.152 81.4295C144.408 81.5101 144.683 81.4998 144.932 81.4003C145.181 81.3008 145.388 81.1183 145.517 80.8837C145.584 80.7658 145.616 80.6311 145.608 80.4957C145.601 80.3603 145.555 80.2297 145.476 80.1196Z" fill="#18216D"/>
<path d="M137.643 86.4783C137.248 84.9774 136.197 83.4354 136.006 81.9208C136.006 81.8123 135.963 81.7082 135.886 81.6314C135.809 81.5546 135.705 81.5115 135.597 81.5115C135.488 81.5115 135.384 81.5546 135.307 81.6314C135.231 81.7082 135.187 81.8123 135.187 81.9208C135.229 83.2102 135.487 84.4833 135.952 85.6869C136.334 87.1469 136.347 88.6888 136.798 90.1079C136.975 90.6674 137.944 90.7902 138.053 90.1079C138.169 88.8828 138.03 87.6468 137.643 86.4783Z" fill="#18216D"/>
<path d="M147.236 78.3867C146.269 77.7015 145.095 77.3732 143.912 77.4578C142.73 77.5424 141.614 78.0347 140.755 78.8507C140.697 78.9227 140.665 79.0121 140.665 79.1044C140.664 79.1967 140.695 79.2865 140.752 79.3591C140.809 79.4318 140.888 79.4832 140.978 79.5048C141.068 79.5264 141.162 79.5171 141.246 79.4783C142.085 78.961 143.009 78.5961 143.975 78.4004C144.972 78.3836 145.962 78.5549 146.895 78.9053C146.963 78.9367 147.041 78.9427 147.113 78.9221C147.185 78.9014 147.248 78.8555 147.289 78.7928C147.33 78.73 147.348 78.6545 147.338 78.58C147.328 78.5055 147.292 78.4369 147.236 78.3867Z" fill="#18216D"/>
<path d="M122.88 81.0338C121.389 80.9306 119.917 81.4211 118.786 82.3983C118.715 82.4808 118.671 82.5837 118.661 82.6925C118.652 82.8013 118.677 82.9103 118.733 83.0041C118.789 83.0979 118.873 83.1716 118.973 83.2147C119.073 83.2579 119.185 83.2682 119.291 83.2443C120.942 82.8077 123.494 81.3067 125.131 82.6712C125.181 82.7165 125.243 82.7449 125.31 82.7522C125.376 82.7594 125.443 82.7453 125.501 82.7118C125.559 82.6783 125.605 82.6271 125.631 82.5658C125.658 82.5045 125.665 82.4363 125.65 82.3711C125.363 81.1839 123.876 81.0611 122.88 81.0338Z" fill="#18216D"/>
<path d="M136.811 98.8408C136.744 98.4414 136.831 98.0311 137.057 97.6946C137.345 97.1246 137.669 96.5732 138.026 96.0435C138.498 95.2319 139.208 94.5843 140.059 94.1878C140.488 94.0027 140.968 93.9751 141.415 94.11C141.862 94.2448 142.247 94.5334 142.501 94.9246C142.648 95.3427 142.686 95.791 142.612 96.2277C142.538 96.6644 142.354 97.0752 142.078 97.4217C141.41 98.4724 137.576 101.324 136.811 98.8408Z" fill="#18216D"/>
<path d="M153.663 66.9248C151.629 66.8713 149.645 66.2881 147.905 65.2328C146.813 64.4414 143.975 61.9579 144.194 60.4706C144.262 60.034 143.661 59.6792 143.416 60.1431C142.42 62.0262 144.876 64.5642 146.145 65.8059C148.192 67.8663 150.907 68.4394 153.691 68.8078C154.878 68.9579 154.878 67.0203 153.663 66.9248Z" fill="white"/>
<path d="M132.472 65.2601C131.16 65.0429 129.901 64.58 128.761 63.8955C127.765 63.2269 125.24 61.2893 126.291 59.9657C126.564 59.6246 126.113 59.1334 125.8 59.4745C124.435 60.9618 125.95 62.8312 127.069 63.9638C128.433 65.3283 130.616 66.8702 132.527 65.9832C132.583 65.939 132.628 65.8815 132.656 65.8159C132.685 65.7503 132.698 65.6786 132.692 65.6071C132.687 65.5356 132.664 65.4666 132.626 65.406C132.587 65.3455 132.534 65.2954 132.472 65.2601Z" fill="white"/>
<path d="M118.036 66.0378C117.037 65.8458 116.023 65.7362 115.006 65.7104C114.324 65.5876 111.172 64.7688 112.005 63.5954C112.277 63.186 111.636 62.6811 111.309 63.0632C108.975 65.7922 116.248 68.1801 118.131 66.7883C118.196 66.7446 118.248 66.6836 118.281 66.6121C118.313 66.5406 118.325 66.4615 118.315 66.3836C118.305 66.3057 118.274 66.2321 118.225 66.171C118.175 66.1099 118.11 66.0638 118.036 66.0378Z" fill="white"/>
<path d="M258.28 27.0673H74.0707V178.528H258.28V27.0673Z" stroke="#18216D" stroke-miterlimit="10"/>
<path d="M113.574 191.628C103.64 190.468 93.5561 188.899 83.7316 190.768C84.4957 175.213 86.6653 159.521 92.751 145.193C98.8367 130.866 109.125 117.903 123.111 111.081C140.577 102.457 161.782 102.457 180.189 107.901C198.255 113.264 215.162 127.086 228.029 140.499C234.819 147.582 240.817 155.383 245.918 163.764C247.226 165.77 248.271 167.934 249.029 170.205C249.633 172.311 249.787 174.521 249.482 176.691C249.176 178.861 248.417 180.942 247.255 182.799C239.532 194.998 221.234 191.178 209.39 192.351C198.774 193.443 188.131 194.139 177.46 194.439C156.124 195.065 134.772 194.126 113.574 191.628Z" fill="#18216D"/>
<path d="M116.139 134.659C117.503 129.31 118.745 123.457 117.503 118.599C116.234 113.427 112.045 108.925 109.807 104.094C107.829 99.7141 106.792 94.5426 108.525 90.1216C108.621 89.8292 108.769 89.5565 108.961 89.3165C109.192 89.1293 109.459 88.9922 109.746 88.9138C110.032 88.8353 110.332 88.8174 110.626 88.861C110.92 88.9046 111.201 89.0089 111.453 89.1672C111.704 89.3255 111.92 89.5343 112.086 89.7805C112.709 90.8054 113.131 91.9401 113.328 93.1235C114.256 96.3983 116.48 99.1137 118.663 101.72C123.644 107.697 130.002 111.626 131.244 119.841C132.049 125.149 131.558 130.648 132.076 136.01C132.69 142.273 133.7 148.482 134.287 154.745C134.887 161.281 136.797 181.039 129.129 184.246C124.312 186.265 112.482 184.642 108.743 180.78C107.679 179.561 106.865 178.145 106.35 176.611C105.835 175.077 105.628 173.456 105.741 171.842C105.988 168.621 106.691 165.451 107.829 162.427C110.189 155.168 112.782 147.95 114.651 140.527C115.061 138.698 115.607 136.72 116.139 134.659Z" fill="white" stroke="#18216D" stroke-miterlimit="10"/>
<path d="M201.871 162.591C201.857 162.477 201.819 162.367 201.76 162.269C201.701 162.17 201.622 162.085 201.529 162.018C201.435 161.952 201.329 161.905 201.216 161.881C201.104 161.858 200.988 161.858 200.875 161.881C197.71 158.62 194.353 154.963 190.505 152.644C190.177 152.439 189.659 152.876 189.932 153.217C191.482 155.044 193.155 156.763 194.94 158.361C196.795 160.217 198.651 162.086 200.48 163.983C200.957 164.488 202.076 164.146 201.981 163.369C201.94 163.109 201.912 162.85 201.871 162.591Z" fill="white"/>
<path d="M213.252 159.903C201.667 161.922 189.891 166.084 179.562 169.891C176.964 170.971 174.261 171.78 171.497 172.306C168.512 172.584 165.509 172.616 162.519 172.402C154.55 172.279 146.063 174.189 140.482 179.893C138.517 181.912 137.971 186.948 141.192 188.244C144.412 189.54 149.515 187.248 153.186 187.684C156.893 188.164 160.645 188.201 164.361 187.794C175.787 186.575 187.244 185.938 198.733 185.883C212.105 185.801 225.559 186.497 238.768 184.423C241.287 184.159 243.727 183.394 245.945 182.172C251.403 178.788 252.768 170.382 248.511 165.798C243.721 160.64 234.634 158.866 227.947 158.702C223.021 158.622 218.099 159.024 213.252 159.903Z" fill="white" stroke="#18216D" stroke-miterlimit="10"/>
<path d="M258.28 27.0673H74.0707V178.528H258.28V27.0673Z" stroke="#18216D" stroke-miterlimit="10"/>
<path d="M81.6439 18.5664H250.735C252.906 18.5664 254.988 19.4289 256.524 20.9643C258.059 22.4997 258.922 24.5821 258.922 26.7534V37.0146H73.4159V26.7944C73.4105 25.7123 73.6196 24.64 74.0311 23.6393C74.4427 22.6385 75.0486 21.7293 75.8137 20.9642C76.5788 20.1991 77.488 19.5932 78.4888 19.1816C79.4895 18.7701 80.5619 18.5609 81.6439 18.5664Z" fill="#18216D"/>
<path d="M84.9872 33.7944C87.7755 33.7944 90.0359 31.534 90.0359 28.7457C90.0359 25.9573 87.7755 23.697 84.9872 23.697C82.1989 23.697 79.9385 25.9573 79.9385 28.7457C79.9385 31.534 82.1989 33.7944 84.9872 33.7944Z" fill="white"/>
<path d="M108.634 28.5137C108.676 29.5082 108.423 30.493 107.906 31.3435C107.388 32.1939 106.631 32.872 105.728 33.292C104.826 33.712 103.819 33.8551 102.835 33.7031C101.851 33.5512 100.935 33.111 100.201 32.4383C99.4672 31.7656 98.9494 30.8904 98.7128 29.9235C98.4763 28.9566 98.5317 27.9412 98.872 27.0058C99.2123 26.0703 99.8222 25.2567 100.625 24.6678C101.427 24.0788 102.386 23.741 103.381 23.6969C104.716 23.6414 106.018 24.1172 107.003 25.02C107.987 25.9228 108.574 27.1791 108.634 28.5137Z" fill="white"/>
<path d="M108.634 28.5137C108.676 29.5082 108.423 30.4929 107.905 31.3434C107.388 32.1939 106.63 32.872 105.728 33.292C104.825 33.712 103.819 33.8551 102.835 33.7031C101.851 33.5512 100.935 33.111 100.201 32.4383C99.4671 31.7655 98.9492 30.8904 98.7127 29.9235C98.4762 28.9566 98.5315 27.9412 98.8718 27.0058C99.2121 26.0703 99.8221 25.2567 100.625 24.6678C101.427 24.0788 102.386 23.741 103.381 23.6969C104.715 23.6414 106.018 24.1172 107.002 25.02C107.987 25.9228 108.574 27.1791 108.634 28.5137Z" fill="white"/>
<path d="M97.7317 22.6053L109.467 34.8859" stroke="#18216D" stroke-miterlimit="10"/>
<path d="M97.4589 34.6131L109.739 22.8646" stroke="#18216D" stroke-miterlimit="10"/>
<path d="M251.458 244.707H38.5933V396.169H251.458V244.707Z" fill="white" stroke="#18216D" stroke-miterlimit="10"/>
<path d="M181.294 323.385C189.85 327.206 200.302 327.083 211.191 320.192C236.284 304.309 229.052 250.602 187.394 261.136C148.409 271.043 157.32 312.688 181.294 323.385Z" fill="#005FEC"/>
<path d="M218.696 290.405C214.343 291.865 210.208 293.857 205.801 295.208C201.771 296.426 197.67 297.392 193.52 298.101C193.711 292.643 193.957 287.144 194.257 281.604C194.571 275.887 195.622 269.801 195.089 264.097C195.089 263.729 194.503 263.606 194.407 264.002C193.043 269.378 193.125 275.409 192.756 280.922C192.356 286.998 192.028 293.066 191.774 299.124C191.774 299.256 191.804 299.386 191.862 299.504C191.92 299.622 192.004 299.725 192.108 299.806C192.212 299.886 192.333 299.941 192.462 299.968C192.591 299.994 192.724 299.99 192.852 299.957C201.666 298.592 211.573 296.477 219.31 291.865C220.06 291.415 219.583 290.105 218.696 290.405Z" fill="#18216D"/>
<path d="M195.417 323.222C195.315 322.76 195.377 322.277 195.594 321.857C195.799 321.475 195.376 320.957 194.98 321.229C194.666 321.433 194.407 321.712 194.229 322.04C194.05 322.369 193.956 322.738 193.957 323.112C193.957 323.767 194.312 324.832 195.144 324.75C195.25 324.745 195.353 324.707 195.436 324.641C195.519 324.575 195.579 324.484 195.608 324.381C195.813 323.999 195.499 323.645 195.417 323.222Z" fill="#18216D"/>
<path d="M167.581 292.452C167.158 291.619 166.639 292.206 166.093 292.452C165.419 292.61 164.726 292.678 164.033 292.656C163.269 292.725 162.505 292.82 161.741 292.957C161.263 293.052 161.236 293.885 161.741 293.953C163.167 294.212 164.62 294.294 166.066 294.198C166.83 294.076 168.072 293.407 167.581 292.452Z" fill="#18216D"/>
<path d="M195.813 260.386C195.734 260.311 195.633 260.263 195.526 260.248C195.418 260.233 195.308 260.253 195.212 260.304C194.85 260.534 194.582 260.886 194.455 261.295C194.327 261.705 194.349 262.147 194.516 262.542C194.553 262.679 194.625 262.805 194.726 262.906C194.826 263.006 194.952 263.078 195.089 263.115C195.211 263.14 195.337 263.14 195.459 263.113C195.581 263.085 195.695 263.033 195.795 262.958C195.894 262.883 195.976 262.787 196.036 262.678C196.096 262.568 196.131 262.448 196.14 262.323C196.24 261.997 196.262 261.652 196.205 261.316C196.148 260.98 196.014 260.661 195.813 260.386Z" fill="#18216D"/>
<path d="M169.041 274.413C168.389 274.207 167.723 274.048 167.049 273.935C166.557 273.84 166.175 274.522 166.68 274.795C167.256 275.097 167.848 275.365 168.454 275.6C168.945 275.777 169.559 276.091 170.037 275.723C170.106 275.676 170.16 275.609 170.192 275.532C170.224 275.454 170.231 275.368 170.214 275.286C170.078 274.727 169.532 274.59 169.041 274.413Z" fill="#18216D"/>
<path d="M176.996 269.078C176.573 268.696 176.136 268.368 175.631 268C175.127 267.631 174.895 267.236 174.472 266.935C174.392 266.889 174.301 266.868 174.21 266.873C174.118 266.879 174.03 266.911 173.957 266.967C173.884 267.022 173.829 267.098 173.8 267.185C173.77 267.272 173.766 267.365 173.789 267.454C174.05 268.022 174.428 268.528 174.899 268.94C175.369 269.351 175.921 269.659 176.518 269.842C176.617 269.874 176.724 269.873 176.821 269.837C176.919 269.802 177.002 269.735 177.057 269.647C177.112 269.559 177.136 269.455 177.125 269.352C177.114 269.249 177.068 269.152 176.996 269.078Z" fill="#18216D"/>
<path d="M172.534 311.828C171.639 312.46 170.831 313.208 170.132 314.052C169.805 314.475 170.228 315.226 170.76 314.871C171.656 314.234 172.463 313.482 173.162 312.633C173.503 312.237 173.039 311.46 172.534 311.828Z" fill="#18216D"/>
<path d="M180.803 318.173C180.517 318.664 180.216 319.155 179.916 319.647C179.616 320.138 179.384 320.424 179.561 321.011C179.606 321.153 179.702 321.273 179.831 321.346C179.961 321.42 180.113 321.441 180.257 321.407C180.817 321.257 180.953 320.916 181.199 320.411L181.963 318.869C182.009 318.793 182.039 318.708 182.052 318.62C182.065 318.533 182.061 318.443 182.039 318.357C182.018 318.271 181.979 318.19 181.926 318.118C181.874 318.047 181.807 317.987 181.731 317.941C181.655 317.895 181.57 317.865 181.483 317.852C181.395 317.839 181.305 317.843 181.219 317.865C181.133 317.886 181.052 317.925 180.98 317.977C180.909 318.03 180.849 318.097 180.803 318.173Z" fill="#18216D"/>
<path d="M209.581 319.428C209.308 319.333 208.857 319.224 208.816 318.855C208.809 318.725 208.756 318.601 208.666 318.506C208.577 318.41 208.457 318.349 208.327 318.333C208.198 318.317 208.066 318.347 207.956 318.417C207.846 318.487 207.764 318.594 207.725 318.719C207.624 318.994 207.598 319.29 207.649 319.578C207.699 319.867 207.825 320.137 208.013 320.361C208.201 320.585 208.445 320.756 208.721 320.855C208.996 320.955 209.292 320.981 209.581 320.929C210.413 320.779 210.222 319.674 209.581 319.428Z" fill="#18216D"/>
<path d="M176.791 409.773C179.343 412.952 184.242 412.42 188.185 411.438C192.129 410.455 196.809 409.459 199.838 412.174C201.123 398.49 197.649 384.781 190.003 373.36C182.357 361.938 171.007 353.502 157.866 349.475C146.95 346.118 136.838 347.414 125.704 348.11C112.741 348.943 100.174 353.5 88.9986 359.995C72.1605 369.793 50.3419 385.389 44.5154 404.697" fill="#18216D"/>
<path d="M111.991 378.553C110.686 377.658 109.511 376.588 108.497 375.373C107.603 374.057 106.987 372.572 106.687 371.01C106.387 369.447 106.408 367.84 106.751 366.286C107.45 363.189 108.451 360.168 109.739 357.266C116.111 340.578 114.897 322.266 121.119 305.415C122.224 302.44 123.439 298.592 125.458 296.122C127.607 293.894 130.044 291.962 132.704 290.378C142.378 283.828 156.051 279.216 165.725 288.317C170.938 293.23 172.043 301.076 171.866 308.239C171.644 318.214 169.586 328.062 165.793 337.29C164.902 339.425 163.573 341.35 161.893 342.941C160.213 344.532 158.218 345.754 156.037 346.528C152.189 347.892 150.484 347.483 148.71 351.208C146.714 355.99 145.999 361.211 146.636 366.354C147.133 368.595 147.394 370.881 147.413 373.177C146.322 385.689 131.762 385.989 122.525 383.765C118.74 382.645 115.177 380.882 111.991 378.553Z" fill="white" stroke="#18216D" stroke-miterlimit="10"/>
<path d="M205.514 334.07C206.355 332.164 207.571 330.447 209.089 329.021C212.204 326.376 215.626 324.117 219.282 322.294C219.465 322.165 219.671 322.074 219.889 322.027C220.107 321.98 220.332 321.978 220.551 322.021C220.779 322.133 220.96 322.321 221.062 322.553C221.165 322.786 221.182 323.046 221.111 323.29C220.965 323.773 220.702 324.214 220.347 324.573L217.85 327.547C214.875 331.095 221.793 328.912 222.898 328.489C226.014 327.361 228.892 325.663 231.386 323.481C232.241 322.687 233.153 321.958 234.115 321.298C235.365 320.457 236.877 320.098 238.372 320.288C239.405 320.548 240.328 321.133 241.006 321.955C241.683 322.777 242.08 323.795 242.138 324.859C242.37 329.58 238.208 334.793 234.824 337.14C231.052 339.771 226.808 341.652 222.325 342.68C221.929 342.762 221.562 342.952 221.266 343.229C220.97 343.506 220.756 343.859 220.647 344.249L208.68 387.559C207.457 392.123 205.977 396.615 204.245 401.013C202.294 405.925 199.524 410.769 194.134 412.365C192.237 412.904 190.234 412.953 188.313 412.507C186.392 412.06 184.615 411.134 183.15 409.814C173.735 401.313 183.791 384.12 187.312 375.141C190.632 366.736 194.175 358.426 197.941 350.212C199.824 346.109 201.771 342.016 203.782 337.931C204.409 336.553 204.928 335.257 205.514 334.07Z" fill="white" stroke="#18216D" stroke-miterlimit="10"/>
<path d="M116.138 291.169C117.559 289.619 119.067 288.152 120.655 286.775C118.049 284.988 115.606 281.972 116.561 278.957C117.132 277.49 118.193 276.265 119.563 275.491C121.303 274.369 123.255 273.619 125.298 273.288C127.341 272.957 129.43 273.052 131.435 273.567C135.003 274.661 138.243 276.626 140.863 279.284C141.239 279.697 141.706 280.015 142.228 280.212C142.638 280.287 143.059 280.287 143.47 280.212L156.323 278.97C159.662 278.532 163.038 278.454 166.394 278.738C171.606 279.366 177.241 282.013 177.719 287.785C178.197 293.557 173.98 298.701 168.986 301.171C163.651 303.736 157.524 303.9 151.616 303.968C145.707 304.037 139.594 304.105 134.191 306.52C131.767 307.431 129.781 309.231 128.637 311.555C128.078 312.92 127.86 314.775 126.495 315.458C124.407 316.522 124.162 316.672 123.357 318.951C122.429 321.598 121.365 324.218 120.232 326.797C119.099 329.376 115.661 334.984 112.181 332.146C109.589 330.044 109.862 321.229 109.712 318.077C109.33 310.791 109.561 301.007 113.532 294.608C114.3 293.388 115.172 292.238 116.138 291.169Z" fill="#18216D"/>
<path d="M158.002 332.623C157.596 332.788 157.159 332.864 156.721 332.845C156.283 332.826 155.854 332.713 155.464 332.514C154.904 332.268 154.099 332.814 154.55 333.442C155.039 334.135 155.772 334.618 156.602 334.793C157.433 334.967 158.298 334.821 159.025 334.383C160.185 333.715 159.175 332.091 158.002 332.623Z" fill="#18216D"/>
<path d="M149.242 316.413C148.095 315.689 145.557 317.559 147.768 318.541C148.669 318.937 150.006 318.023 149.678 316.999C149.612 316.756 149.456 316.546 149.242 316.413Z" fill="#18216D"/>
<path d="M168.263 315.908C168.006 315.706 167.689 315.597 167.362 315.597C167.036 315.597 166.719 315.706 166.462 315.908C166.288 316.087 166.183 316.322 166.163 316.571C166.143 316.819 166.21 317.067 166.353 317.272C166.394 317.435 166.458 317.592 166.544 317.736C166.654 317.911 166.826 318.038 167.026 318.092C167.226 318.145 167.439 318.12 167.622 318.023C167.867 317.904 168.084 317.734 168.258 317.525C168.432 317.315 168.559 317.071 168.631 316.808C168.672 316.639 168.659 316.46 168.592 316.299C168.526 316.137 168.411 316 168.263 315.908Z" fill="#18216D"/>
<path d="M160.335 317.859C160.172 317.368 159.298 317.231 159.203 317.859C158.973 319.6 158.626 321.323 158.166 323.017C157.852 324.149 157.197 325.65 157.906 326.742C158.48 327.615 160.117 327.07 159.694 325.992C159.271 324.914 160.253 322.649 160.458 321.475C160.718 320.278 160.676 319.035 160.335 317.859Z" fill="#18216D"/>
<path d="M121.529 316.194C120.516 316.302 119.548 316.669 118.718 317.259C117.71 317.808 116.859 318.607 116.248 319.578C115.44 320.867 115.032 322.366 115.076 323.887C115.12 325.407 115.613 326.88 116.494 328.12C117.365 329.229 118.631 329.958 120.028 330.154C121.424 330.35 122.842 329.997 123.985 329.171C128.61 325.882 129.17 315.43 121.529 316.194Z" fill="white"/>
<path d="M122.647 320.725C122.192 320.763 121.752 320.906 121.362 321.143C120.971 321.38 120.641 321.703 120.396 322.089C120.098 322.472 119.913 322.93 119.862 323.413C119.811 323.895 119.897 324.382 120.109 324.818C120.179 324.954 120.3 325.058 120.445 325.106C120.591 325.155 120.749 325.144 120.887 325.077C121.256 324.886 121.174 324.368 121.201 324.013C121.207 323.527 121.362 323.054 121.645 322.659C121.928 322.263 122.325 321.965 122.784 321.803C123.33 321.584 123.248 320.656 122.647 320.725Z" fill="#18216D"/>
<path d="M128.951 341.383C126.1 339.405 122.484 335.093 122.784 331.122L122.402 331.013C121.164 330.724 119.961 330.303 118.813 329.758C118.977 329.84 118.813 335.789 118.936 336.444C119.199 338.812 119.697 341.147 120.423 343.416C121.297 346.145 123.48 354.101 127.764 351.604C129.838 350.403 131.858 349.147 133.891 347.865C134.969 347.182 136.02 346.5 137.098 345.804L137.452 345.6C134.46 344.54 131.606 343.125 128.951 341.383Z" fill="#18216D"/>
<path d="M217.167 328.857C217.126 328.769 217.055 328.699 216.967 328.658C216.879 328.618 216.779 328.61 216.686 328.636C216.592 328.662 216.511 328.721 216.457 328.801C216.403 328.882 216.379 328.979 216.389 329.075C216.534 330.03 216.487 331.004 216.253 331.941C216.019 332.878 215.601 333.759 215.025 334.533C214.697 335.011 215.393 335.475 215.789 335.12C216.62 334.335 217.196 333.318 217.442 332.201C217.687 331.084 217.592 329.919 217.167 328.857Z" fill="#18216D"/>
<path d="M220.77 337.385C218.995 336.968 217.132 337.156 215.475 337.917C214.074 338.44 212.91 339.453 212.201 340.769C212.168 340.851 212.167 340.941 212.195 341.024C212.224 341.107 212.281 341.177 212.357 341.222C212.433 341.266 212.522 341.282 212.608 341.267C212.694 341.251 212.773 341.206 212.828 341.138C213.807 339.847 215.242 338.978 216.84 338.709C218.199 338.637 219.545 338.408 220.852 338.027C221.152 337.877 221.029 337.494 220.77 337.385Z" fill="#18216D"/>
<path d="M251.458 244.707H38.5933V396.169H251.458V244.707Z" stroke="#18216D" stroke-miterlimit="10"/>
<path d="M46.1664 231.431H243.912C246.083 231.431 248.166 232.293 249.701 233.829C251.236 235.364 252.099 237.446 252.099 239.618V249.879H37.9384V239.618C37.9383 238.539 38.1515 237.471 38.5655 236.475C38.9794 235.479 39.5862 234.575 40.3508 233.814C41.1153 233.053 42.0227 232.451 43.0207 232.042C44.0188 231.633 45.0878 231.425 46.1664 231.431Z" fill="#18216D"/>
<path d="M49.5099 246.659C52.2982 246.659 54.5586 244.398 54.5586 241.61C54.5586 238.822 52.2982 236.561 49.5099 236.561C46.7216 236.561 44.4612 238.822 44.4612 241.61C44.4612 244.398 46.7216 246.659 49.5099 246.659Z" fill="white"/>
<path d="M73.1569 241.378C73.1991 242.373 72.9455 243.357 72.4283 244.208C71.911 245.058 71.1533 245.736 70.2508 246.156C69.3483 246.576 68.3415 246.719 67.3578 246.567C66.374 246.415 65.4573 245.975 64.7236 245.303C63.9899 244.63 63.4721 243.755 63.2355 242.788C62.999 241.821 63.0544 240.806 63.3947 239.87C63.735 238.935 64.3449 238.121 65.1475 237.532C65.95 236.943 66.9091 236.605 67.9035 236.561C69.2383 236.506 70.5406 236.982 71.5253 237.884C72.51 238.787 73.0967 240.043 73.1569 241.378Z" fill="white"/>
<path d="M73.1565 241.378C73.1987 242.373 72.9452 243.357 72.4279 244.208C71.9106 245.058 71.1529 245.736 70.2504 246.156C69.3479 246.576 68.3412 246.719 67.3574 246.567C66.3736 246.415 65.457 245.975 64.7233 245.303C63.9895 244.63 63.4717 243.755 63.2352 242.788C62.9986 241.821 63.054 240.806 63.3943 239.87C63.7346 238.935 64.3446 238.121 65.1471 237.532C65.9496 236.943 66.9087 236.605 67.9032 236.561C69.2379 236.506 70.5403 236.981 71.5249 237.884C72.5096 238.787 73.0963 240.043 73.1565 241.378Z" fill="white"/>
<path d="M62.2542 235.47L73.989 247.75" stroke="#18216D" stroke-miterlimit="10"/>
<path d="M61.9813 247.477L74.262 235.729" stroke="#18216D" stroke-miterlimit="10"/>
<path d="M230.458 224.185L247.105 203.663L253.655 224.185L268.051 202.981L274.805 224.185L288.955 203.322L295.614 224.185L309.191 204.181" stroke="#18216D" stroke-miterlimit="10"/>
<path d="M1.21973 383.833L17.8668 363.311L24.4165 383.833L38.8121 362.629L45.5665 383.833L59.7301 362.97L66.3753 383.833" stroke="#00ECD0" stroke-width="2" stroke-miterlimit="10"/>
<path d="M102.057 478.108C102.427 477.057 103.048 476.114 103.867 475.359C104.685 474.604 105.676 474.06 106.753 473.776C107.829 473.492 108.959 473.476 110.043 473.729C111.128 473.983 112.134 474.497 112.973 475.229L113.396 475.583C114.271 476.333 115.321 476.849 116.448 477.083C117.576 477.317 118.745 477.262 119.845 476.923C120.946 476.584 121.943 475.971 122.743 475.143C123.543 474.315 124.121 473.297 124.422 472.186L126.591 463.889C126.89 462.777 127.467 461.758 128.266 460.928C129.066 460.098 130.062 459.484 131.163 459.143C132.264 458.803 133.433 458.746 134.562 458.98C135.69 459.213 136.741 459.729 137.617 460.478L137.876 460.71C138.75 461.46 139.8 461.975 140.928 462.21C142.056 462.444 143.224 462.389 144.325 462.05C145.425 461.711 146.422 461.098 147.222 460.27C148.023 459.442 148.6 458.424 148.901 457.312L150.948 449.494C151.247 448.381 151.823 447.362 152.623 446.532C153.422 445.702 154.419 445.088 155.52 444.748C156.621 444.407 157.79 444.351 158.918 444.584C160.047 444.818 161.098 445.333 161.973 446.082C162.848 446.832 163.898 447.348 165.025 447.582C166.153 447.816 167.321 447.761 168.422 447.422C169.523 447.083 170.52 446.471 171.32 445.642C172.12 444.814 172.697 443.797 172.998 442.685" stroke="#18216D" stroke-miterlimit="10"/>
<path d="M218.559 1.19611C219.596 0.80858 220.712 0.679238 221.81 0.819243C222.909 0.959249 223.956 1.3644 224.863 1.99972C225.769 2.63504 226.508 3.48144 227.014 4.46588C227.521 5.45033 227.78 6.54323 227.77 7.65026V8.20971C227.761 9.36076 228.044 10.4953 228.592 11.5076C229.14 12.5199 229.935 13.3772 230.903 13.9996C231.872 14.622 232.982 14.9892 234.13 15.0672C235.278 15.1452 236.428 14.9313 237.472 14.4455L245.222 10.7477C246.266 10.2619 247.415 10.0481 248.563 10.126C249.712 10.204 250.822 10.5713 251.79 11.1937C252.759 11.8161 253.554 12.6733 254.101 13.6857C254.649 14.698 254.932 15.8325 254.924 16.9835V17.352C254.915 18.503 255.198 19.6375 255.746 20.6498C256.294 21.6622 257.089 22.5194 258.057 23.1418C259.025 23.7642 260.135 24.1315 261.284 24.2095C262.432 24.2874 263.582 24.0736 264.625 23.5878L271.926 20.1083C272.97 19.6194 274.121 19.4031 275.271 19.4796C276.421 19.556 277.534 19.9227 278.504 20.5455C279.474 21.1682 280.271 22.0267 280.819 23.0407C281.368 24.0548 281.65 25.1913 281.641 26.3441V26.3441C281.633 27.4934 281.916 28.6259 282.464 29.6365C283.011 30.6472 283.804 31.5032 284.771 32.1253C285.737 32.7473 286.845 33.1151 287.991 33.1946C289.138 33.2741 290.286 33.0627 291.329 32.58" stroke="#18216D" stroke-miterlimit="10"/>
<path d="M292.694 327.342C290.593 324.895 288.994 322.057 287.99 318.992C286.986 315.926 286.595 312.693 286.84 309.476C287.085 306.26 287.962 303.123 289.419 300.246C290.876 297.368 292.886 294.805 295.334 292.704C300.278 288.461 306.704 286.355 313.2 286.851C319.696 287.346 325.729 290.401 329.972 295.345" stroke="#00ECD0" stroke-width="2" stroke-miterlimit="10"/>
<path d="M495.707 39.3479C502.866 39.3479 508.669 33.5443 508.669 26.3851C508.669 19.2258 502.866 13.4222 495.707 13.4222C488.547 13.4222 482.744 19.2258 482.744 26.3851C482.744 33.5443 488.547 39.3479 495.707 39.3479Z" fill="#005FEC"/>
<path d="M531.961 377.161C535.799 377.161 539.599 377.917 543.144 379.386C546.69 380.855 549.911 383.008 552.624 385.722C555.337 388.437 557.488 391.659 558.956 395.205C560.423 398.751 561.177 402.551 561.176 406.389" fill="white"/>
<path d="M531.961 377.161C535.799 377.161 539.599 377.917 543.144 379.386C546.69 380.855 549.911 383.008 552.624 385.722C555.337 388.437 557.488 391.659 558.956 395.205C560.423 398.751 561.177 402.551 561.176 406.389" stroke="#18216D" stroke-miterlimit="10"/>
<path d="M549.605 3.87056L508.669 44.806" stroke="#18216D" stroke-miterlimit="10"/>
<rect x="74.3712" y="179.197" width="177.387" height="23.1968" fill="white"/>
<rect x="41.6228" y="396.837" width="169.2" height="28.6548" fill="white"/>
<rect x="309.068" y="231.731" width="222.416" height="42.3" fill="white"/>
<path d="M497.084 261.082L521.959 240.573L528.495 261.082L550.396 239.891L557.15 261.082L578.696 240.232L585.341 261.082L606 241.078" stroke="#00ECD0" stroke-width="2" stroke-miterlimit="10"/>
<path d="M383.816 254.259L342.88 295.194" stroke="#18216D" stroke-miterlimit="10"/>
<path d="M372.899 273.362L331.964 314.298" stroke="#18216D" stroke-miterlimit="10"/>
</svg>
