<svg width="48" height="48" viewBox="0 0 48 48" fill="none" xmlns="http://www.w3.org/2000/svg">
<path d="M19.9299 28.4633L25.3753 12.1267C25.577 11.5215 25.25 10.8673 24.6447 10.6655C24.0396 10.4638 23.3853 10.7909 23.1835 11.3961L17.7381 27.7327C17.5364 28.3379 17.8634 28.9922 18.4687 29.1939C18.5898 29.2343 18.713 29.2535 18.8341 29.2535C19.3177 29.2535 19.7685 28.9474 19.9299 28.4633Z" fill="#00ECD0"/>
<path d="M28.0912 23.3953C30.002 23.3953 31.5567 21.8407 31.5567 19.9298C31.5567 18.0189 30.002 16.4643 28.0912 16.4643C26.1803 16.4643 24.6257 18.0189 24.6257 19.9298C24.6257 21.8407 26.1803 23.3953 28.0912 23.3953ZM28.0912 18.7746C28.7281 18.7746 29.2463 19.2928 29.2463 19.9298C29.2463 20.5668 28.7281 21.085 28.0912 21.085C27.4542 21.085 26.936 20.5668 26.936 19.9298C26.936 19.2928 27.4542 18.7746 28.0912 18.7746Z" fill="#00ECD0"/>
<path d="M15.0221 16.4643C13.1113 16.4643 11.5566 18.0189 11.5566 19.9298C11.5566 21.8407 13.1113 23.3953 15.0221 23.3953C16.933 23.3953 18.4876 21.8407 18.4876 19.9298C18.4876 18.0189 16.9331 16.4643 15.0221 16.4643ZM15.0221 21.085C14.3852 21.085 13.867 20.5668 13.867 19.9298C13.867 19.2928 14.3852 18.7746 15.0221 18.7746C15.6591 18.7746 16.1773 19.2928 16.1773 19.9298C16.1773 20.5668 15.6592 21.085 15.0221 21.085Z" fill="#00ECD0"/>
<path d="M47.7188 17.4375L42.815 10.8991L43.0063 9.56004C43.0688 9.12186 42.9216 8.67973 42.6085 8.36679L39.6254 5.38367L42.6084 2.40054C43.1576 1.85145 43.1576 0.961008 42.6084 0.411821C42.0593 -0.137274 41.1689 -0.137274 40.6197 0.411821L37.6367 3.39495L34.6536 0.411821C34.3406 0.0987891 33.8985 -0.0480235 33.4603 0.014039L19.5391 2.00276C19.2379 2.04579 18.9588 2.18538 18.7436 2.40054L1.50785 19.6363C-0.502617 21.6467 -0.502617 24.918 1.50785 26.9284L16.0919 41.5125C16.3902 41.8108 16.7168 42.0638 17.0625 42.2736V42.8437C17.0625 45.6869 19.3756 48 22.2187 48H42.8437C45.6869 48 48 45.6869 48 42.8437V18.2812C48 17.977 47.9013 17.6809 47.7188 17.4375ZM3.49657 24.9396C2.5827 24.0258 2.5827 22.5389 3.49657 21.625L20.4008 4.72076L33.1619 2.89779L35.6479 5.38376L33.6591 7.37248L32.6647 6.37807C32.1157 5.82898 31.2252 5.82898 30.676 6.37807C30.1268 6.92717 30.1268 7.81761 30.676 8.36679L34.6536 12.3443C34.9282 12.6189 35.2881 12.7563 35.6479 12.7563C36.0077 12.7563 36.3677 12.6189 36.6422 12.3443C37.1914 11.7952 37.1914 10.9048 36.6422 10.3556L35.6478 9.3612L37.6365 7.37248L40.1225 9.85845L38.2994 22.6195L21.3952 39.5238C20.9525 39.9665 20.364 40.2102 19.7379 40.2102C19.1119 40.2102 18.5233 39.9664 18.0806 39.5238L3.49657 24.9396ZM45.1875 42.8437C45.1875 44.1361 44.1361 45.1875 42.8437 45.1875H22.2187C20.9846 45.1875 19.971 44.2286 19.882 43.0168C21.1539 42.9816 22.4153 42.4811 23.3839 41.5125L40.6196 24.2767C40.8348 24.0616 40.9744 23.7825 41.0174 23.4813L42.2524 14.8366L45.1875 18.75V42.8437Z" fill="#005FEC"/>
</svg>
