<svg width="20" height="20" viewBox="0 0 20 20" fill="none" xmlns="http://www.w3.org/2000/svg">
<path fill-rule="evenodd" clip-rule="evenodd" d="M0 2.85714C0 1.27919 1.27919 0 2.85714 0H17.1429C18.7208 0 20 1.27919 20 2.85714V17.1429C20 18.7208 18.7208 20 17.1429 20H2.85714C1.27919 20 0 18.7208 0 17.1429V2.85714ZM3.13988 4.63203V15.7143H6.0836V9.26406H6.17018L8.63772 15.6277H10.4126L12.8801 9.30735H12.9667V15.7143H15.9104V4.63203H12.1659L9.5901 10.9091H9.46023L6.88447 4.63203H3.13988ZM9.52381 5.71429C10.5758 5.71429 11.4286 4.86149 11.4286 3.80952C11.4286 2.75755 10.5758 1.90476 9.52381 1.90476C8.47184 1.90476 7.61905 2.75755 7.61905 3.80952C7.61905 4.86149 8.47184 5.71429 9.52381 5.71429Z" fill="#005FEC"/>
</svg>
